<?xml version="1.0" encoding="utf-8"?>
<!-- Generator: Adobe Illustrator 24.1.0, SVG Export Plug-In . SVG Version: 6.00 Build 0)  -->
<svg version="1.1" id="Warstwa_1" xmlns="http://www.w3.org/2000/svg" xmlns:xlink="http://www.w3.org/1999/xlink" x="0px" y="0px"
	 viewBox="0 0 194.47 194.47" enable-background="new 0 0 194.47 194.47" xml:space="preserve">
<g>
	<circle opacity="0.37" fill="#164688" cx="96.49" cy="152.87" r="11.91"/>
	<g>
		<path fill="#174689" d="M95.78,153.39c-34.1,0-61.85-27.74-61.85-61.85s27.74-61.85,61.85-61.85s61.85,27.74,61.85,61.85
			S129.88,153.39,95.78,153.39z M95.78,31.69c-33,0-59.85,26.85-59.85,59.85s26.85,59.85,59.85,59.85c33,0,59.85-26.85,59.85-59.85
			S128.78,31.69,95.78,31.69z"/>
	</g>
	<circle fill="#174689" cx="96.49" cy="152.87" r="6.28"/>
	<g>
		<path fill="#174689" d="M121.54,85.76H81.13l38.27-13.93c0.64-0.23,0.98-0.95,0.74-1.59l-2.21-6.07
			c-0.88-2.42-3.56-3.66-5.98-2.79L72.03,75.91c-2.42,0.88-3.67,3.56-2.79,5.98l1.77,4.87C71,86.84,70.97,86.91,70.97,87v29.92
			c0,2.57,2.09,4.66,4.66,4.66h42.49c2.57,0,4.66-2.09,4.66-4.66V87C122.78,86.31,122.22,85.76,121.54,85.76z M100.96,95.47
			l7.11-7.11c0.03-0.03,0.05-0.08,0.07-0.11h8.54l-7.23,7.23H100.96z M88.94,95.47l7.18-7.18c0.01-0.01,0.02-0.03,0.03-0.05h8.52
			l-7.23,7.23H88.94z M76.93,95.47l7.23-7.23h8.5l-7.23,7.23H76.93z M120.2,88.24h0.1v7.23h-7.32L120.2,88.24z M80.64,88.24
			l-7.19,7.19v-6.88l0.86-0.31H80.64z M73.3,85.76l-1.72-4.72c-0.21-0.57-0.16-1.18,0.09-1.69l8.69,4.05l-6.48,2.36H73.3z
			 M82.16,74.86l9.49,4.42l-7.99,2.91l-9.49-4.42L82.16,74.86z M93.45,70.75l9.48,4.42l-7.99,2.91l-9.49-4.42L93.45,70.75z
			 M104.74,66.65l9.49,4.42l-7.99,2.91l-9.48-4.42L104.74,66.65z M112.8,63.71c0.24-0.09,0.5-0.13,0.74-0.13
			c0.89,0,1.73,0.55,2.05,1.43l1.73,4.76l-9.29-4.33L112.8,63.71z M118.12,119.1H75.63c-1.2,0-2.18-0.98-2.18-2.18V97.95h46.84
			v18.97C120.29,118.12,119.32,119.1,118.12,119.1z"/>
		<path fill="#174689" d="M114.36,104.14H79.38c-0.69,0-1.24,0.56-1.24,1.24s0.56,1.24,1.24,1.24h34.98c0.69,0,1.24-0.56,1.24-1.24
			S115.05,104.14,114.36,104.14z"/>
		<path fill="#174689" d="M114.36,110.34H79.38c-0.69,0-1.24,0.56-1.24,1.24s0.56,1.24,1.24,1.24h34.98c0.69,0,1.24-0.56,1.24-1.24
			S115.05,110.34,114.36,110.34z"/>
	</g>
</g>
</svg>
