<?xml version="1.0" encoding="utf-8"?>
<!-- Generator: Adobe Illustrator 24.1.0, SVG Export Plug-In . SVG Version: 6.00 Build 0)  -->
<svg version="1.1" id="Warstwa_1" xmlns="http://www.w3.org/2000/svg" xmlns:xlink="http://www.w3.org/1999/xlink" x="0px" y="0px"
	 viewBox="0 0 194.47 194.47" enable-background="new 0 0 194.47 194.47" xml:space="preserve">
<g>
	<circle opacity="0.37" fill="#9AC455" cx="96.35" cy="152.87" r="11.91"/>
	<g>
		<path fill="#9AC456" d="M95.64,153.39c-34.1,0-61.85-27.74-61.85-61.85s27.74-61.85,61.85-61.85s61.85,27.74,61.85,61.85
			S129.74,153.39,95.64,153.39z M95.64,31.69c-33,0-59.85,26.85-59.85,59.85s26.85,59.85,59.85,59.85c33,0,59.85-26.85,59.85-59.85
			S128.64,31.69,95.64,31.69z"/>
	</g>
	<circle fill="#9AC456" cx="96.35" cy="152.87" r="6.28"/>
	<g>
		<path fill="#9AC456" d="M112.05,98.4c-2.57-9.95-4.79-18.54-13.44-18.54H72.58c-8.65,0-10.87,8.59-13.44,18.54
			c-0.4,1.54-0.81,3.13-1.26,4.75c-2.14,7.71,1.21,10.95,2.75,11.98c2.56,1.72,5.99,1.56,8.54-0.41c2.58-1.99,5.66-7.77,6.85-10.14
			h19.14c1.19,2.37,4.27,8.15,6.85,10.14c1.37,1.06,3,1.6,4.62,1.6c1.38,0,2.74-0.39,3.93-1.19c1.54-1.03,4.88-4.27,2.75-11.98
			C112.85,101.53,112.44,99.94,112.05,98.4z M108.68,112.34c-1.35,0.91-3.21,0.8-4.6-0.28c-1.86-1.43-4.87-6.82-6.34-9.89
			c-0.28-0.59-0.87-0.96-1.52-0.96H74.98c-0.65,0-1.24,0.37-1.52,0.96c-1.47,3.06-4.49,8.45-6.34,9.89
			c-1.4,1.08-3.25,1.19-4.61,0.28c-1.94-1.31-2.46-4.41-1.38-8.29c0.45-1.64,0.87-3.25,1.27-4.81c2.65-10.23,4.42-16.02,10.18-16.02
			h26.02c5.76,0,7.53,5.79,10.18,16.01c0.4,1.56,0.82,3.17,1.27,4.81C111.14,107.94,110.62,111.04,108.68,112.34z"/>
		<path fill="#9AC456" d="M76.98,89.81H75.3v-1.68c0-0.93-0.75-1.68-1.68-1.68c-0.93,0-1.68,0.75-1.68,1.68v1.68h-1.68
			c-0.93,0-1.68,0.75-1.68,1.68s0.75,1.68,1.68,1.68h1.68v1.68c0,0.93,0.75,1.68,1.68,1.68c0.93,0,1.68-0.75,1.68-1.68v-1.68h1.68
			c0.93,0,1.68-0.75,1.68-1.68S77.91,89.81,76.98,89.81z"/>
		<path fill="#9AC456" d="M101.81,89.41c-1.16,0-2.1,0.94-2.1,2.1c0,1.16,0.94,2.1,2.1,2.1c1.16,0,2.1-0.94,2.1-2.1
			C103.91,90.36,102.97,89.41,101.81,89.41z M101.81,92.78c-0.7,0-1.26-0.57-1.26-1.26s0.57-1.26,1.26-1.26s1.26,0.57,1.26,1.26
			S102.51,92.78,101.81,92.78z"/>
		<path fill="#9AC456" d="M93.67,89.41c-1.16,0-2.1,0.94-2.1,2.1c0,1.16,0.94,2.1,2.1,2.1c1.16,0,2.1-0.94,2.1-2.1
			C95.77,90.36,94.83,89.41,93.67,89.41z M93.67,92.78c-0.7,0-1.26-0.57-1.26-1.26s0.57-1.26,1.26-1.26s1.26,0.57,1.26,1.26
			S94.37,92.78,93.67,92.78z"/>
		<path fill="#9AC456" d="M97.74,89.55c1.16,0,2.1-0.94,2.1-2.1s-0.94-2.1-2.1-2.1c-1.16,0-2.1,0.94-2.1,2.1
			S96.58,89.55,97.74,89.55z M97.74,86.18c0.7,0,1.26,0.57,1.26,1.26s-0.57,1.26-1.26,1.26s-1.26-0.57-1.26-1.26
			S97.04,86.18,97.74,86.18z"/>
		<path fill="#9AC456" d="M97.74,93.48c-1.16,0-2.1,0.94-2.1,2.1c0,1.16,0.94,2.1,2.1,2.1c1.16,0,2.1-0.94,2.1-2.1
			C99.84,94.43,98.9,93.48,97.74,93.48z M97.74,96.85c-0.7,0-1.26-0.57-1.26-1.26s0.57-1.26,1.26-1.26S99,94.89,99,95.59
			S98.44,96.85,97.74,96.85z"/>
		<path fill="#9AC456" d="M130.93,91.21c-0.45-1.62-0.86-3.21-1.26-4.75c-2.57-9.95-4.79-18.54-13.44-18.54H90.21
			c-6.4,0-9.11,5.11-10.6,8.95c-0.34,0.87,0.09,1.84,0.96,2.18c0.87,0.34,1.84-0.09,2.18-0.96c1.87-4.83,4.03-6.8,7.46-6.8h26.02
			c5.76,0,7.53,5.79,10.18,16.02c0.4,1.56,0.82,3.17,1.27,4.81c1.08,3.89,0.56,6.99-1.38,8.29c-1.35,0.91-3.21,0.8-4.6-0.28
			c-1.86-1.43-4.87-6.82-6.34-9.89c-0.4-0.84-1.41-1.2-2.24-0.79c-0.84,0.4-1.19,1.41-0.79,2.24c0.42,0.88,4.23,8.71,7.32,11.1
			c1.37,1.06,3,1.6,4.62,1.6c1.38,0,2.74-0.39,3.93-1.19C129.72,102.16,133.07,98.92,130.93,91.21z"/>
		<path fill="#9AC456" d="M119.43,81.67c1.16,0,2.1-0.94,2.1-2.1c0-1.16-0.94-2.1-2.1-2.1c-1.16,0-2.1,0.94-2.1,2.1
			C117.33,80.73,118.27,81.67,119.43,81.67z M119.43,78.31c0.7,0,1.26,0.57,1.26,1.26s-0.57,1.26-1.26,1.26s-1.26-0.57-1.26-1.26
			S118.73,78.31,119.43,78.31z"/>
		<path fill="#9AC456" d="M111.29,77.47c-1.16,0-2.1,0.94-2.1,2.1c0,1.16,0.94,2.1,2.1,2.1c1.16,0,2.1-0.94,2.1-2.1
			C113.39,78.41,112.45,77.47,111.29,77.47z M111.29,80.83c-0.7,0-1.26-0.57-1.26-1.26s0.57-1.26,1.26-1.26s1.26,0.57,1.26,1.26
			S111.99,80.83,111.29,80.83z"/>
		<path fill="#9AC456" d="M115.36,73.4c-1.16,0-2.1,0.94-2.1,2.1s0.94,2.1,2.1,2.1c1.16,0,2.1-0.94,2.1-2.1S116.52,73.4,115.36,73.4
			z M115.36,76.76c-0.7,0-1.26-0.57-1.26-1.26s0.57-1.26,1.26-1.26s1.26,0.57,1.26,1.26S116.06,76.76,115.36,76.76z"/>
		<path fill="#9AC456" d="M115.36,81.54c-1.16,0-2.1,0.94-2.1,2.1c0,1.16,0.94,2.1,2.1,2.1c1.16,0,2.1-0.94,2.1-2.1
			C117.46,82.48,116.52,81.54,115.36,81.54z M115.36,84.9c-0.7,0-1.26-0.57-1.26-1.26s0.57-1.26,1.26-1.26s1.26,0.57,1.26,1.26
			S116.06,84.9,115.36,84.9z"/>
		<path fill="#9AC456" d="M92.8,76.76v-2.11c0-0.93-0.75-1.68-1.68-1.68s-1.68,0.75-1.68,1.68v2.11c0,0.93,0.75,1.68,1.68,1.68
			S92.8,77.69,92.8,76.76z"/>
	</g>
</g>
</svg>
