<?xml version="1.0" encoding="utf-8"?>
<!-- Generator: Adobe Illustrator 24.1.0, SVG Export Plug-In . SVG Version: 6.00 Build 0)  -->
<svg version="1.1" id="Warstwa_1" xmlns="http://www.w3.org/2000/svg" xmlns:xlink="http://www.w3.org/1999/xlink" x="0px" y="0px"
	 viewBox="0 0 194.47 194.47" enable-background="new 0 0 194.47 194.47" xml:space="preserve">
<g>
	<circle opacity="0.37" fill="#9AC455" cx="96.49" cy="152.6" r="11.91"/>
	<g>
		<path fill="#9AC456" d="M95.78,153.12c-34.1,0-61.85-27.74-61.85-61.85s27.74-61.85,61.85-61.85s61.85,27.74,61.85,61.85
			S129.88,153.12,95.78,153.12z M95.78,31.42c-33,0-59.85,26.85-59.85,59.85s26.85,59.85,59.85,59.85c33,0,59.85-26.85,59.85-59.85
			S128.78,31.42,95.78,31.42z"/>
	</g>
	<circle fill="#9AC456" cx="96.49" cy="152.6" r="6.28"/>
	<path fill="#9AC456" d="M126.5,83.59h-1.35v-6.08c0-2.98-2.43-5.4-5.4-5.4c-1.04,0-2.02,0.3-2.84,0.81
		c-0.55-2.4-2.7-4.19-5.27-4.19h0c-2.98,0-5.4,2.42-5.4,5.4v9.46H85.7v-9.46c0-2.98-2.43-5.4-5.41-5.4c-2.56,0-4.71,1.79-5.27,4.19
		c-0.83-0.51-1.8-0.81-2.84-0.81c-2.98,0-5.4,2.42-5.4,5.4v6.08h-1.35c-2.23,0-4.05,1.82-4.05,4.05v5.4c0,2.23,1.82,4.05,4.05,4.05
		h1.35v6.08c0,2.98,2.43,5.4,5.4,5.4c1.04,0,2.02-0.3,2.84-0.81c0.55,2.4,2.7,4.19,5.27,4.19h0c2.98,0,5.4-2.42,5.4-5.4V97.1h20.53
		v9.46c0,2.98,2.43,5.4,5.41,5.4c2.56,0,4.71-1.79,5.27-4.19c0.83,0.51,1.8,0.81,2.84,0.81c2.98,0,5.4-2.42,5.4-5.4V97.1h1.35
		c2.23,0,4.05-1.82,4.05-4.05v-5.4C130.55,85.41,128.73,83.59,126.5,83.59z M66.78,94.4h-1.35c-0.74,0-1.35-0.61-1.35-1.35v-5.4
		c0-0.74,0.61-1.35,1.35-1.35h1.35V94.4z M74.89,103.18c0,0.75-0.3,1.42-0.79,1.91c-0.49,0.49-1.16,0.79-1.91,0.79
		c-1.49,0-2.7-1.21-2.7-2.7V77.51c0-1.49,1.21-2.7,2.7-2.7s2.7,1.21,2.7,2.7V103.18z M82.99,106.56c0,1.49-1.21,2.7-2.7,2.7h0
		c-1.49,0-2.7-1.21-2.7-2.7V74.13c0-1.49,1.21-2.7,2.7-2.7c1.49,0,2.7,1.21,2.7,2.7V106.56z M106.22,89h-9.45
		c-0.75,0-1.35,0.61-1.35,1.35s0.61,1.35,1.35,1.35h9.45v2.7H85.69v-8.11h20.53V89z M114.34,106.56c0,1.49-1.21,2.7-2.7,2.7
		c-1.49,0-2.7-1.21-2.7-2.7V90.42c0,0.03,0,0.06-0.01,0.09v-0.31c0,0.03,0.01,0.06,0.01,0.09V74.13c0-1.49,1.21-2.7,2.7-2.7h0
		c1.49,0,2.7,1.21,2.7,2.7V106.56z M122.44,103.18c0,1.49-1.21,2.7-2.7,2.7s-2.7-1.21-2.7-2.7V77.51c0-1.49,1.21-2.7,2.7-2.7
		s2.7,1.21,2.7,2.7V103.18z M127.85,93.05c0,0.74-0.61,1.35-1.35,1.35h-1.35v-8.11h1.35c0.74,0,1.35,0.61,1.35,1.35V93.05z"/>
	<path fill="#9AC456" d="M91.37,91.7c-0.75,0-1.35-0.6-1.35-1.35S90.62,89,91.37,89h0c0.75,0,1.35,0.6,1.35,1.35
		S92.12,91.7,91.37,91.7z"/>
</g>
</svg>
