<?xml version="1.0" encoding="utf-8"?>
<!-- Generator: Adobe Illustrator 24.1.0, SVG Export Plug-In . SVG Version: 6.00 Build 0)  -->
<svg version="1.1" id="Warstwa_1" xmlns="http://www.w3.org/2000/svg" xmlns:xlink="http://www.w3.org/1999/xlink" x="0px" y="0px"
	 viewBox="0 0 194.47 194.47" enable-background="new 0 0 194.47 194.47" xml:space="preserve">
<g>
	<circle opacity="0.37" fill="#9BC556" cx="96.95" cy="153.58" r="11.91"/>
	<g>
		<path fill="#9BC556" d="M96.24,154.09c-34.1,0-61.85-27.74-61.85-61.85S62.14,30.4,96.24,30.4s61.85,27.74,61.85,61.85
			S130.34,154.09,96.24,154.09z M96.24,32.4c-33,0-59.85,26.85-59.85,59.85s26.85,59.85,59.85,59.85c33,0,59.85-26.85,59.85-59.85
			S129.24,32.4,96.24,32.4z"/>
	</g>
	<circle fill="#9BC556" cx="96.95" cy="153.58" r="6.28"/>
	<path fill="#9BC556" d="M80.88,63.48h14.37c0.46,0,0.83-0.37,0.83-0.83c0-0.46-0.37-0.83-0.83-0.83l0,0H80.88
		c-0.46,0-0.83,0.37-0.83,0.83C80.04,63.1,80.42,63.48,80.88,63.48z"/>
	<path fill="#9BC556" d="M80.23,68.76h15.02c0.46,0,0.83-0.37,0.83-0.83s-0.37-0.83-0.83-0.83l0,0H80.23
		c-0.46,0-0.83,0.37-0.83,0.83S79.77,68.76,80.23,68.76z"/>
	<path fill="#9BC556" d="M80.23,74.05h33.53c0.46,0,0.83-0.37,0.83-0.83s-0.37-0.83-0.83-0.83H80.23c-0.46,0-0.83,0.37-0.83,0.83
		S79.77,74.05,80.23,74.05L80.23,74.05z"/>
	<path fill="#9BC556" d="M113.76,79.34c0.46,0,0.83-0.37,0.83-0.83s-0.37-0.83-0.83-0.83H80.23c-0.46,0-0.83,0.37-0.83,0.83
		s0.37,0.83,0.83,0.83H113.76z"/>
	<path fill="#9BC556" d="M112.81,111.29c0.34,0.48,0.89,0.76,1.48,0.76c0.25,0,0.5-0.05,0.73-0.15l3.16-1.36
		c0.92-0.39,1.35-1.46,0.96-2.38c-0.01-0.02-0.02-0.04-0.03-0.06l-1.1-2.32l-0.24-45.99c-0.01-1.77-1.46-3.2-3.23-3.19H79.31
		c-1.77-0.01-3.21,1.42-3.23,3.19v43.99l-2.33,4.41c-0.46,0.87-0.14,1.95,0.72,2.43l3,1.68c0.27,0.15,0.58,0.23,0.89,0.23
		c0.18,0,0.35-0.03,0.52-0.08c0.47-0.14,0.87-0.46,1.1-0.9l0.32-0.61l1.08,0.89l-1.9,2.61c-0.94,1.29-0.65,3.1,0.64,4.04
		c0.49,0.36,1.09,0.55,1.7,0.55c0.17,0,0.34-0.01,0.5-0.04c0,0.01,0,0.01,0,0.02c0.12,0.76,0.54,1.44,1.17,1.89
		c0.49,0.35,1.08,0.54,1.68,0.54c0.17,0,0.34-0.01,0.51-0.04c0,0.01,0,0.01,0,0.02c0.23,1.4,1.44,2.43,2.86,2.43
		c0.17,0,0.34-0.01,0.5-0.04c0,0.01,0,0.01,0,0.02c0.23,1.4,1.44,2.43,2.86,2.43c0.93,0,1.81-0.44,2.36-1.19l0.6-0.83l1.13,0.89
		c1.3,1.1,3.24,0.95,4.36-0.33c0.4-0.46,0.65-1.02,0.73-1.62c1.17,0.35,2.43-0.01,3.24-0.93c0.4-0.46,0.65-1.02,0.73-1.62
		c1.17,0.35,2.43-0.01,3.24-0.93c0.37-0.43,0.62-0.95,0.71-1.51c1.23,0.47,2.62,0.13,3.49-0.86l0.04-0.04
		c1.09-1.25,0.96-3.15-0.29-4.24c-0.01-0.01-0.02-0.02-0.03-0.02l-0.69-0.59C112.01,112.09,112.44,111.72,112.81,111.29
		L112.81,111.29z M117.61,108.92c-0.02,0.04-0.05,0.07-0.09,0.09l-3.16,1.36c-0.08,0.04-0.18,0-0.22-0.08l-0.4-0.84
		c-0.03-0.11-0.08-0.22-0.15-0.31l-7.2-15.13c-0.02-0.04-0.02-0.08,0-0.12c0.02-0.04,0.05-0.07,0.09-0.09l3.25-1.27
		c0.08-0.03,0.17,0,0.21,0.08l7.66,16.19C117.62,108.84,117.62,108.88,117.61,108.92z M77.75,59.78c0.01-0.85,0.71-1.53,1.56-1.52
		h35.23c0.85-0.01,1.55,0.67,1.56,1.53l0.22,42.43l-4.88-10.31c-0.41-0.87-1.43-1.27-2.32-0.92l-3.25,1.27
		c-0.93,0.36-1.4,1.41-1.04,2.35c0.02,0.04,0.03,0.08,0.05,0.12l0.34,0.71l-0.1,0.04c-1.24,0.25-2.1,0.22-3.39-0.14l-3.24-0.9
		c-0.96-0.27-1.98-0.25-2.93,0.05l-3.13,0.98c-0.63,0.2-1.21,0.51-1.71,0.92c-0.83-0.25-1.7-0.33-2.57-0.24l0.23-0.43
		c0.45-0.85,0.16-1.91-0.67-2.4l-2.98-1.8c-0.87-0.52-1.99-0.24-2.52,0.62c-0.02,0.03-0.03,0.06-0.05,0.09l-4.42,8.38L77.75,59.78z
		 M78.52,110.77c-0.02,0.04-0.06,0.07-0.1,0.08c-0.04,0.01-0.09,0.01-0.13-0.01l-3-1.68c-0.07-0.04-0.1-0.13-0.06-0.2L83.64,93
		c0.02-0.04,0.06-0.07,0.1-0.08c0.02,0,0.03-0.01,0.05-0.01c0.03,0,0.06,0.01,0.09,0.02l2.98,1.8c0.07,0.04,0.1,0.13,0.06,0.2
		L78.52,110.77z M81.13,117.14c-0.55-0.39-0.68-1.16-0.29-1.71c0,0,0-0.01,0.01-0.01l3.12-4.29c0.4-0.55,1.17-0.67,1.72-0.28
		c0.55,0.39,0.68,1.16,0.29,1.71c0,0,0,0.01-0.01,0.01l-0.85,1.16l-2.26,3.11l-0.01,0.02C82.45,117.41,81.68,117.54,81.13,117.14
		L81.13,117.14z M84.49,119.54c-0.55-0.39-0.68-1.16-0.29-1.71c0,0,0-0.01,0.01-0.01l2.26-3.11c0.4-0.55,1.17-0.67,1.72-0.28
		c0.55,0.39,0.68,1.16,0.29,1.71c0,0,0,0.01-0.01,0.01l-0.71,0.98l-1.53,2.11l-0.01,0.02C85.81,119.81,85.04,119.94,84.49,119.54
		L84.49,119.54z M87.85,121.95c-0.55-0.39-0.68-1.16-0.29-1.71c0,0,0-0.01,0.01-0.01l1.56-2.14c0.4-0.55,1.17-0.67,1.72-0.28
		c0.55,0.39,0.68,1.16,0.29,1.71c0,0,0,0.01-0.01,0.01l-1.03,1.42l-0.51,0.7v0l-0.01,0.02C89.17,122.22,88.41,122.34,87.85,121.95
		L87.85,121.95z M92.94,124.07c-0.4,0.55-1.17,0.67-1.72,0.28c-0.55-0.39-0.68-1.16-0.29-1.71c0,0,0,0,0.01-0.01l0.85-1.17
		c0.4-0.55,1.17-0.67,1.72-0.28c0.55,0.39,0.68,1.16,0.29,1.71c0,0,0,0.01-0.01,0.01L92.94,124.07z M111.29,116.16l-0.04,0.04
		c-0.52,0.6-1.43,0.67-2.04,0.16l-1.21-1.04c0,0,0,0-0.01-0.01l-3.22-2.75c-0.34-0.31-0.87-0.28-1.18,0.06
		c-0.31,0.34-0.28,0.87,0.06,1.18c0.01,0.01,0.02,0.02,0.03,0.03l0.02,0.01l0.03,0.02c0.27,0.23,1.74,1.49,3.18,2.72
		c0.59,0.5,0.66,1.39,0.15,1.98c0,0-0.01,0.01-0.01,0.01c-0.52,0.6-1.43,0.66-2.04,0.15l-3.22-2.75c-0.35-0.3-0.87-0.26-1.17,0.09
		c-0.13,0.15-0.2,0.33-0.2,0.53v0c0,0.25,0.1,0.48,0.29,0.65l2.22,1.9c0.59,0.5,0.66,1.39,0.16,1.98c0,0.01-0.01,0.01-0.01,0.02
		c-0.52,0.6-1.43,0.66-2.04,0.15l-1-0.85l0,0l-1.22-1.04c-0.36-0.29-0.88-0.24-1.17,0.11c-0.28,0.35-0.24,0.85,0.09,1.15l1.06,0.91
		l0.16,0.14c0.59,0.5,0.66,1.39,0.16,1.98c0,0.01-0.01,0.01-0.01,0.02c-0.52,0.6-1.43,0.66-2.04,0.15
		c-0.01-0.01-0.02-0.01-0.02-0.02l-1.42-1.12c0.29-1.57-0.75-3.07-2.31-3.36c-0.11-0.02-0.23-0.03-0.34-0.04
		c0.27-1.57-0.78-3.06-2.35-3.33c-0.1-0.02-0.21-0.03-0.31-0.04c0.27-1.57-0.78-3.06-2.35-3.33c-0.07-0.01-0.13-0.02-0.2-0.03
		c0.39-1.55-0.56-3.13-2.11-3.52c-1.15-0.29-2.35,0.15-3.05,1.11l-0.24,0.33l-1.27-1.05l6.06-11.43c0.76-0.21,1.56-0.27,2.34-0.18
		c-0.1,0.17-0.18,0.35-0.26,0.53l-0.96,2.31c-0.25,0.59-0.47,1.2-0.67,1.81l-0.95,2.89c-0.13,0.41,0.06,0.85,0.45,1.02l0.21,0.09
		c1.55,0.7,3.35,0.56,4.78-0.37c1.23-0.8,2.02-2.11,2.17-3.57c0-0.05,0.01-0.1,0.01-0.14c0.05-0.21,0.34-1.42,1.14-1.51l1.34,0.37
		c0.5,0.14,0.95,0.4,1.32,0.76l8.54,8.37c0.01,0.01,0.03,0.03,0.04,0.04l4.49,3.84c0.56,0.48,0.63,1.32,0.15,1.89
		C111.3,116.15,111.3,116.16,111.29,116.16L111.29,116.16z M107.77,109.17l-8.52-8.35c-0.57-0.56-1.27-0.96-2.03-1.17l-1.47-0.41
		c-0.07-0.02-0.15-0.03-0.23-0.03c-0.99,0-1.84,0.56-2.38,1.56c-0.23,0.43-0.4,0.9-0.49,1.38c0,0.03-0.01,0.05-0.01,0.08
		c0,0.05-0.01,0.1-0.01,0.15c-0.1,0.96-0.62,1.82-1.43,2.34c-0.8,0.51-1.78,0.66-2.69,0.41l0.7-2.13c0.19-0.57,0.4-1.14,0.63-1.7
		l0.95-2.3c0.4-0.93,1.18-1.64,2.15-1.94l3.13-0.98c0.65-0.2,1.34-0.21,1.99-0.03l3.24,0.9c1.58,0.44,2.7,0.48,4.26,0.15
		c0.05-0.01,0.1-0.03,0.15-0.05l0.25-0.1l6.03,12.68c-0.44,0.69-1.05,1.25-1.77,1.65L107.77,109.17z"/>
	<path fill="#9BC556" d="M83.1,89.49c0.49,0.22,1.02,0.34,1.56,0.33c0.78,0,1.54-0.21,2.2-0.61c0.47-0.32,0.88-0.72,1.21-1.19
		c0.05-0.07,0.12-0.16,0.18-0.23c0.23,0.2,0.47,0.37,0.74,0.51c0.69,0.36,1.45,0.56,2.23,0.57c0.93,0.02,1.85-0.23,2.66-0.7
		c0.4-0.23,0.54-0.74,0.31-1.14c-0.23-0.4-0.74-0.54-1.14-0.31c0,0-0.01,0-0.01,0.01c-0.54,0.32-1.16,0.48-1.78,0.47
		c-0.51-0.01-1.02-0.13-1.48-0.37c-0.18-0.09-0.34-0.21-0.49-0.35c-0.26-0.27-0.62-0.43-0.99-0.45c-0.8-0.02-1.24,0.56-1.56,0.99
		c-0.2,0.31-0.46,0.57-0.76,0.78c-0.62,0.39-1.56,0.47-2.16,0.19c-0.2-0.1-0.38-0.24-0.52-0.41c0.65-0.1,1.27-0.36,1.79-0.76
		c0.5-0.4,0.91-0.91,1.19-1.5c0.36-0.77,0.35-1.51-0.01-2.07c-0.31-0.48-0.86-0.8-1.56-0.92c-0.93-0.15-1.96,0.08-2.62,0.6
		c-0.72,0.57-1.12,1.56-1.11,2.71l-0.02-0.01c-0.42-0.18-0.91,0.01-1.09,0.44c-0.18,0.42,0.01,0.91,0.44,1.09l0,0
		c0.34,0.14,0.68,0.26,1.04,0.34C81.7,88.4,82.32,89.12,83.1,89.49L83.1,89.49z M83.11,84.22c0.3-0.2,0.65-0.3,1-0.29
		c0.1,0,0.21,0.01,0.31,0.02c0.29,0.05,0.42,0.15,0.44,0.18c0.09,0.14-0.18,0.87-0.8,1.36c-0.41,0.3-0.9,0.47-1.41,0.47
		C82.56,85.21,82.75,84.51,83.11,84.22z"/>
	<path fill="#9BC556" d="M113.76,85.79h-12.49c-0.46,0-0.83,0.37-0.83,0.83c0,0.46,0.37,0.83,0.83,0.83h12.49
		c0.46,0,0.83-0.37,0.83-0.83C114.59,86.16,114.22,85.79,113.76,85.79L113.76,85.79z"/>
</g>
</svg>
