<?xml version="1.0" encoding="utf-8"?>
<!-- Generator: Adobe Illustrator 24.1.0, SVG Export Plug-In . SVG Version: 6.00 Build 0)  -->
<svg version="1.1" id="Warstwa_1" xmlns="http://www.w3.org/2000/svg" xmlns:xlink="http://www.w3.org/1999/xlink" x="0px" y="0px"
	 viewBox="0 0 194.47 194.47" enable-background="new 0 0 194.47 194.47" xml:space="preserve">
<g>
	<circle opacity="0.37" fill="#174789" cx="96.79" cy="153.1" r="11.91"/>
	<g>
		<path fill="#17468A" d="M96.08,153.62c-34.1,0-61.85-27.74-61.85-61.85s27.74-61.85,61.85-61.85s61.85,27.74,61.85,61.85
			S130.18,153.62,96.08,153.62z M96.08,31.92c-33,0-59.85,26.85-59.85,59.85s26.85,59.85,59.85,59.85c33,0,59.85-26.85,59.85-59.85
			S129.08,31.92,96.08,31.92z"/>
	</g>
	<circle fill="#17468A" cx="96.79" cy="153.1" r="6.28"/>
	<path fill="#17468A" d="M82.59,103.25c1.7-1.23,2.82-3.23,2.82-5.49c0-3.74-3.04-6.78-6.78-6.78c-3.74,0-6.78,3.04-6.78,6.78
		c0,2.26,1.11,4.26,2.82,5.49c-5.01,1.66-8.63,6.39-8.63,11.94v6.78h25.18v-6.78C91.22,109.64,87.6,104.92,82.59,103.25z
		 M73.79,97.76c0-2.67,2.17-4.84,4.84-4.84s4.84,2.17,4.84,4.84s-2.17,4.84-4.84,4.84S73.79,100.43,73.79,97.76z M75.24,115.2h-1.45
		v-3.87h5.81v8.72h-1.3c0.21-0.44,0.33-0.93,0.33-1.45C78.63,116.72,77.11,115.2,75.24,115.2z M89.29,120.04h-3.87v-8.72h-1.94v8.72
		h-1.94v-10.65h-9.69v5.81h-1.94v1.94h5.33c0.8,0,1.45,0.65,1.45,1.45s-0.65,1.45-1.45,1.45h-7.26v-4.84
		c0-5.87,4.78-10.65,10.65-10.65s10.65,4.78,10.65,10.65V120.04z"/>
	<path fill="#17468A" d="M117.46,103.25c1.7-1.23,2.82-3.23,2.82-5.49c0-3.74-3.04-6.78-6.78-6.78c-3.74,0-6.78,3.04-6.78,6.78
		c0,2.26,1.11,4.26,2.82,5.49c-5.01,1.66-8.63,6.39-8.63,11.94v6.78h25.18v-6.78C126.09,109.64,122.47,104.92,117.46,103.25z
		 M108.66,97.76c0-2.67,2.17-4.84,4.84-4.84c2.67,0,4.84,2.17,4.84,4.84s-2.17,4.84-4.84,4.84
		C110.83,102.61,108.66,100.43,108.66,97.76z M110.11,115.2h-1.45v-3.87h5.81v8.72h-1.3c0.21-0.44,0.33-0.93,0.33-1.45
		C113.5,116.72,111.98,115.2,110.11,115.2z M124.15,120.04h-3.87v-8.72h-1.94v8.72h-1.94v-10.65h-9.69v5.81h-1.94v1.94h5.33
		c0.8,0,1.45,0.65,1.45,1.45s-0.65,1.45-1.45,1.45h-7.26v-4.84c0-5.87,4.78-10.65,10.65-10.65s10.65,4.78,10.65,10.65V120.04z"/>
	<path fill="#17468A" d="M90.22,79.32c0.63,0.48,1,1.27,1,2.12v0.82c0,2.67,2.17,4.84,4.84,4.84c2.67,0,4.84-2.17,4.84-4.84v-0.75
		c0-0.89,0.42-1.73,1.14-2.3c2.35-1.85,3.7-4.62,3.7-7.6c0-2.64-1.05-5.11-2.94-6.95c-1.9-1.84-4.38-2.8-7.04-2.73
		c-5.19,0.16-9.41,4.52-9.39,9.72C86.39,74.68,87.79,77.48,90.22,79.32z M98.97,82.27c0,1.6-1.3,2.91-2.91,2.91s-2.91-1.3-2.91-2.91
		v-0.82c0-0.05-0.01-0.1-0.01-0.15h5.83c0,0.07-0.01,0.15-0.01,0.22V82.27z M96.07,73.55c-1.07,0-1.94-0.87-1.94-1.94
		s0.87-1.94,1.94-1.94c1.07,0,1.94,0.87,1.94,1.94S97.13,73.55,96.07,73.55z M95.83,63.87c0.08,0,0.16,0,0.24,0
		c2.03,0,3.93,0.77,5.39,2.19c1.52,1.47,2.35,3.45,2.35,5.56c0,2.39-1.08,4.6-2.96,6.08c-0.59,0.46-1.05,1.03-1.37,1.67h-2.45v-4.01
		c1.67-0.43,2.91-1.94,2.91-3.74c0-2.14-1.74-3.87-3.87-3.87c-2.14,0-3.87,1.74-3.87,3.87c0,1.8,1.24,3.3,2.91,3.74v4.01h-2.42
		c-0.3-0.62-0.74-1.17-1.29-1.58c-1.94-1.47-3.06-3.71-3.07-6.14C88.3,67.48,91.67,63.99,95.83,63.87L95.83,63.87z"/>
	<path fill="#17468A" d="M115.7,82.8c-0.74,0.53-1.23,1.39-1.23,2.37c0,1.6,1.3,2.91,2.91,2.91s2.91-1.3,2.91-2.91
		c0-1.54-1.2-2.79-2.71-2.89c-1.12-4.17-3.39-7.89-6.64-10.8l-1.29,1.44C112.61,75.59,114.68,78.99,115.7,82.8z M118.34,85.17
		c0,0.53-0.43,0.97-0.97,0.97s-0.97-0.43-0.97-0.97c0-0.53,0.43-0.97,0.97-0.97S118.34,84.64,118.34,85.17z"/>
	<path fill="#17468A" d="M74.76,88.08c1.6,0,2.91-1.3,2.91-2.91c0-0.98-0.49-1.84-1.23-2.37c1.02-3.81,3.09-7.21,6.06-9.88
		l-1.29-1.44c-3.25,2.91-5.52,6.63-6.64,10.8c-1.51,0.1-2.71,1.35-2.71,2.89C71.85,86.77,73.16,88.08,74.76,88.08z M74.76,84.2
		c0.53,0,0.97,0.43,0.97,0.97c0,0.53-0.43,0.97-0.97,0.97c-0.53,0-0.97-0.43-0.97-0.97C73.79,84.64,74.22,84.2,74.76,84.2z"/>
	<path fill="#17468A" d="M102.85,96.79c1.6,0,2.91-1.3,2.91-2.91s-1.3-2.91-2.91-2.91c-1.26,0-2.33,0.81-2.73,1.94h-8.11
		c-0.4-1.12-1.47-1.94-2.73-1.94c-1.6,0-2.91,1.3-2.91,2.91s1.3,2.91,2.91,2.91c1.26,0,2.33-0.81,2.73-1.94h8.11
		C100.52,95.98,101.58,96.79,102.85,96.79z M102.85,92.92c0.53,0,0.97,0.43,0.97,0.97c0,0.53-0.43,0.97-0.97,0.97
		s-0.97-0.43-0.97-0.97C101.88,93.35,102.31,92.92,102.85,92.92z M89.29,94.86c-0.53,0-0.97-0.43-0.97-0.97
		c0-0.53,0.43-0.97,0.97-0.97c0.53,0,0.97,0.43,0.97,0.97C90.25,94.42,89.82,94.86,89.29,94.86z"/>
</g>
</svg>
