<?xml version="1.0" encoding="utf-8"?>
<!-- Generator: Adobe Illustrator 24.1.0, SVG Export Plug-In . SVG Version: 6.00 Build 0)  -->
<svg version="1.1" id="Warstwa_1" xmlns="http://www.w3.org/2000/svg" xmlns:xlink="http://www.w3.org/1999/xlink" x="0px" y="0px"
	 viewBox="0 0 194.47 194.47" enable-background="new 0 0 194.47 194.47" xml:space="preserve">
<g>
	<g>
		<path fill="#7DB3E2" d="M96.18,154.21c-34.1,0-61.85-27.74-61.85-61.85s27.74-61.85,61.85-61.85s61.85,27.74,61.85,61.85
			S130.28,154.21,96.18,154.21z M96.18,32.52c-33,0-59.85,26.85-59.85,59.85s26.85,59.85,59.85,59.85c33,0,59.85-26.85,59.85-59.85
			S129.18,32.52,96.18,32.52z"/>
	</g>
	<g>
		<path fill="#7DB3E2" d="M84.33,107.37l1.04,4.86c0.01,0.04,0.02,0.08,0.03,0.11c0.3,0.87,0.93,1.58,1.76,1.98
			c0.83,0.4,1.77,0.46,2.65,0.16c0.73-0.25,1.3-0.7,1.67-1.3c0.47-0.75,0.65-1.74,0.51-2.91c0,0,0-0.01,0-0.01l-0.94-6.93
			c-0.01-0.11-0.05-0.22-0.1-0.32l-2.64-5.01l0.41-0.64c0.09,0.05,0.2,0.09,0.3,0.11c0.12,0.02,0.25,0.02,0.38-0.01
			c0.25-0.06,0.46-0.21,0.6-0.42l2.38-3.8l0.23,0.15c0.11,0.07,0.23,0.11,0.34,0.13c0.37,0.06,0.76-0.1,0.97-0.43l1.47-2.35
			c0.28-0.45,0.14-1.04-0.3-1.32c-0.45-0.28-1.04-0.15-1.32,0.3l-0.97,1.54l-0.23-0.15c0,0,0,0,0,0l-12.3-7.71c0,0,0,0,0,0
			l-0.23-0.15l6.62-10.57c0.28-0.45,0.15-1.04-0.3-1.32c-0.45-0.28-1.04-0.15-1.32,0.3l-7.13,11.38c-0.28,0.45-0.15,1.04,0.3,1.32
			l0.23,0.15l-2.38,3.8c-0.27,0.43-0.15,0.99,0.25,1.28l-0.51,0.81c-1.31,0.23-4.83,1.06-6.23,3.28c0,0.01-0.01,0.01-0.01,0.02
			c-1.01,1.63-10.26,16.35-10.26,16.35c-0.93,1.49-0.48,3.46,1.01,4.4c0.39,0.25,0.81,0.39,1.24,0.46
			c-0.69,1.44-0.21,3.21,1.18,4.08c0.74,0.46,1.59,0.58,2.38,0.41c0.19,0.78,0.67,1.5,1.4,1.96c1.13,0.71,2.55,0.62,3.57-0.13
			c0.25,0.44,0.61,0.83,1.07,1.12c1.49,0.93,3.46,0.48,4.4-1.01L84.33,107.37L84.33,107.37z M90.76,92.23l-1.87,2.99l-10.68-6.69
			l1.87-2.99L90.76,92.23z M84.5,104.04c-0.32,0.08-0.56,0.31-0.67,0.59c-0.07,0.06-0.14,0.14-0.19,0.22c0,0,0,0,0,0l-9.69,15.48
			c-0.37,0.59-1.16,0.77-1.76,0.4c-0.6-0.37-0.78-1.16-0.4-1.76l5.04-8.03c0.28-0.45,0.15-1.04-0.3-1.32
			c-0.45-0.28-1.04-0.15-1.32,0.3l-5.04,8.03l-0.86,1.38c-0.37,0.6-1.16,0.78-1.76,0.4c-0.6-0.37-0.78-1.16-0.4-1.76l5.94-9.46
			c0.28-0.45,0.15-1.04-0.3-1.32c-0.45-0.28-1.04-0.15-1.32,0.3l-5.94,9.46c-0.37,0.6-1.16,0.78-1.76,0.4
			c-0.6-0.37-0.78-1.16-0.4-1.76l1.36-2.16l4.64-7.39c0.28-0.45,0.15-1.04-0.3-1.32c-0.45-0.28-1.04-0.15-1.32,0.3l-4.64,7.39
			c-0.37,0.6-1.16,0.78-1.76,0.4c-0.6-0.37-0.78-1.16-0.4-1.76l6.44-10.26c0,0,0,0,0,0c0.02-0.04,2.41-3.81,3.83-6.1
			c0,0,0-0.01,0.01-0.01c0.98-1.56,4.17-2.32,5.32-2.48c0.28-0.04,0.53-0.2,0.68-0.44l0.74-1.18l9.15,5.73l-0.7,1.11
			c-0.18,0.29-0.2,0.65-0.04,0.95l2.81,5.35l0.91,6.75c0.14,1.18-0.17,1.91-0.91,2.17c-0.39,0.14-0.81,0.11-1.19-0.07
			c-0.36-0.17-0.63-0.47-0.77-0.84l-1.03-4.81c0-0.01,0-0.02-0.01-0.03l-0.53-2.19C85.54,104.23,85.02,103.92,84.5,104.04z"/>
		<path fill="#7DB3E2" d="M92.8,79.68L92.8,79.68l-4.74-1.54c-0.04-0.01-0.08-0.02-0.11-0.03c-0.91-0.17-1.83,0.02-2.6,0.53
			c-0.77,0.52-1.28,1.31-1.46,2.22c-0.15,0.76-0.04,1.47,0.29,2.1c0.41,0.78,1.18,1.44,2.27,1.9c0,0,0.01,0,0.01,0.01l6.47,2.65
			c0.1,0.04,0.21,0.07,0.33,0.07l5.66,0.22l0.35,0.67c-0.2,0.12-0.36,0.31-0.43,0.54c-0.07,0.24-0.05,0.5,0.07,0.73l2.1,3.96
			l-0.24,0.13c-0.22,0.12-0.39,0.32-0.47,0.56c-0.07,0.24-0.05,0.5,0.07,0.73l1.33,2.52c0.14,0.27,0.4,0.45,0.68,0.49
			c0.2,0.04,0.42,0.01,0.61-0.1c0.47-0.25,0.64-0.83,0.4-1.29l-0.89-1.67l13.31-7.05l5.83,11c0.25,0.47,0.83,0.64,1.29,0.4
			c0.47-0.25,0.64-0.83,0.4-1.29l-6.28-11.85c-0.25-0.47-0.83-0.64-1.29-0.4l-0.24,0.13l-2.1-3.96c-0.24-0.45-0.78-0.63-1.24-0.42
			l-0.45-0.85c0.45-1.25,1.5-4.72,0.27-7.04c0-0.01-0.01-0.01-0.01-0.02c-0.9-1.68-9.03-17.06-9.03-17.06
			c-0.82-1.55-2.76-2.15-4.31-1.33c-0.41,0.22-0.75,0.51-1.02,0.85c-0.9-1.32-2.68-1.78-4.12-1.02c-0.77,0.41-1.3,1.08-1.54,1.85
			c-0.77-0.23-1.63-0.17-2.4,0.24c-1.18,0.63-1.81,1.9-1.68,3.16c-0.51,0-1.03,0.12-1.51,0.37c-1.55,0.82-2.15,2.76-1.33,4.31
			L92.8,79.68z M113.83,86.92l-11.13,5.9l-1.65-3.11l11.13-5.9L113.83,86.92z M87.29,62.48c0.62-0.33,1.4-0.09,1.72,0.53l4.43,8.38
			c0.25,0.47,0.83,0.65,1.29,0.4c0.47-0.25,0.65-0.83,0.4-1.29l-4.43-8.38l-0.76-1.44c-0.33-0.62-0.09-1.39,0.53-1.72
			c0.62-0.33,1.4-0.09,1.72,0.53l5.22,9.87c0.25,0.47,0.83,0.65,1.29,0.4c0.47-0.25,0.65-0.83,0.4-1.29l-5.22-9.87
			c-0.33-0.62-0.09-1.39,0.53-1.72c0.62-0.33,1.39-0.09,1.72,0.53l1.19,2.25l4.08,7.71c0.25,0.47,0.83,0.65,1.29,0.4
			c0.47-0.25,0.65-0.83,0.4-1.29l-4.08-7.71c-0.33-0.62-0.09-1.39,0.53-1.72c0.62-0.33,1.39-0.09,1.72,0.53l5.67,10.71c0,0,0,0,0,0
			c0.02,0.04,2.09,3.99,3.37,6.36c0,0,0,0.01,0.01,0.01c0.86,1.63-0.08,4.77-0.51,5.85c-0.11,0.26-0.09,0.56,0.04,0.81l0.65,1.23
			l-9.54,5.06l-0.61-1.16c-0.16-0.3-0.47-0.49-0.81-0.51l-6.04-0.24L87.2,83.1c-1.09-0.47-1.57-1.1-1.42-1.88
			c0.08-0.41,0.31-0.76,0.65-0.99c0.33-0.22,0.72-0.31,1.11-0.25l4.68,1.52c0.01,0,0.02,0.01,0.03,0.01l2.16,0.63
			c0.51,0.15,1.04-0.14,1.19-0.65c0.09-0.31,0.01-0.64-0.18-0.87c-0.02-0.1-0.05-0.19-0.1-0.28c0,0,0,0,0,0l-8.57-16.13
			C86.43,63.59,86.66,62.81,87.29,62.48z"/>
		<path fill="#7DB3E2" d="M132.49,111.86c0.59-0.55,0.96-1.33,1-2.2c0.05-1.34-0.74-2.52-1.89-3.03c0.26-0.44,0.41-0.95,0.43-1.49
			c0.06-1.76-1.31-3.24-3.07-3.3l-16.49-0.58l0.01-0.01l3.69-3.33c0.03-0.03,0.06-0.05,0.08-0.08c0.61-0.7,0.9-1.59,0.84-2.52
			c-0.07-0.92-0.49-1.77-1.19-2.37c-0.59-0.51-1.25-0.77-1.96-0.8c-0.88-0.03-1.84,0.31-2.78,1.01c0,0-0.01,0.01-0.01,0.01
			l-5.53,4.28c-0.09,0.07-0.16,0.15-0.22,0.25l-3.02,4.79l-0.76-0.03c0-0.24-0.09-0.46-0.25-0.64c-0.17-0.19-0.41-0.3-0.67-0.3
			l-4.48-0.16l0.01-0.28c0.02-0.53-0.39-0.97-0.92-0.99l-2.78-0.1c-0.53-0.02-0.97,0.39-0.99,0.92c-0.02,0.53,0.39,0.97,0.92,0.99
			l1.82,0.07L94,109.48l-0.26,7.25c0,0,0,0,0,0L93.72,117l-12.6-0.46c-0.53-0.02-0.97,0.39-0.99,0.92c-0.02,0.48,0.33,0.9,0.79,0.98
			c0.04,0.01,0.09,0.01,0.13,0.01l13.55,0.49c0.25,0.01,0.5-0.08,0.69-0.26c0.19-0.17,0.3-0.41,0.3-0.67l0.01-0.27l4.48,0.16
			c0.25,0.01,0.5-0.08,0.69-0.26c0.17-0.16,0.28-0.38,0.3-0.61l0.96,0.03c0.86,1.01,3.33,3.66,5.96,3.75c0.01,0,0.02,0,0.02,0
			c1.91,0.06,19.29,0.71,19.29,0.71c1.76,0.07,3.24-1.31,3.3-3.07c0.02-0.46-0.07-0.9-0.23-1.31c1.59-0.12,2.88-1.43,2.94-3.06
			C133.35,113.25,133.03,112.45,132.49,111.86z M95.68,115.84l0.23-6.3l0.23-6.3l3.52,0.13l-0.46,12.59L95.68,115.84z
			 M130.09,115.28l-2.55-0.09l-8.72-0.32c-0.53-0.02-0.97,0.39-0.99,0.92c-0.02,0.53,0.39,0.97,0.92,0.99l8.72,0.32
			c0.7,0.03,1.25,0.62,1.23,1.32c-0.03,0.7-0.62,1.25-1.32,1.23l-12.11-0.45c0,0,0,0,0,0c-0.04,0-4.5-0.18-7.19-0.27
			c0,0-0.01,0-0.01,0c-1.85-0.07-4.09-2.45-4.81-3.37c-0.17-0.22-0.44-0.36-0.72-0.37l-1.39-0.05l0.39-10.79l1.31,0.05
			c0.34,0.01,0.66-0.16,0.84-0.45l3.22-5.11l5.39-4.17c0.95-0.71,1.74-0.81,2.34-0.29c0.31,0.27,0.5,0.65,0.53,1.06
			c0.03,0.4-0.09,0.78-0.34,1.09l-3.65,3.29c-0.01,0.01-0.01,0.01-0.02,0.02l-1.63,1.56c-0.38,0.37-0.4,0.97-0.03,1.35
			c0.23,0.24,0.54,0.33,0.85,0.28c0.09,0.03,0.19,0.05,0.29,0.06c0,0,0,0,0,0l18.25,0.65c0.7,0.03,1.25,0.62,1.23,1.32
			c-0.03,0.7-0.62,1.25-1.32,1.23l-9.48-0.35c-0.53-0.02-0.97,0.39-0.99,0.92c-0.02,0.53,0.39,0.97,0.92,0.99l9.48,0.35l1.63,0.06
			c0.7,0.03,1.25,0.62,1.23,1.32c-0.03,0.7-0.62,1.25-1.32,1.23l-11.16-0.41c-0.53-0.02-0.97,0.39-0.99,0.92
			c-0.02,0.53,0.39,0.97,0.92,0.99l11.16,0.41c0.7,0.03,1.25,0.62,1.23,1.32C131.38,114.75,130.79,115.3,130.09,115.28z"/>
	</g>
	<circle fill="#7DB3E2" cx="96.89" cy="153.7" r="6.28"/>
	<circle opacity="0.37" fill="#7DB3E2" cx="96.89" cy="153.7" r="11.91"/>
</g>
</svg>
