<?xml version="1.0" encoding="utf-8"?>
<!-- Generator: Adobe Illustrator 24.1.0, SVG Export Plug-In . SVG Version: 6.00 Build 0)  -->
<svg version="1.1" id="Warstwa_1" xmlns="http://www.w3.org/2000/svg" xmlns:xlink="http://www.w3.org/1999/xlink" x="0px" y="0px"
	 viewBox="0 0 194.47 194.47" enable-background="new 0 0 194.47 194.47" xml:space="preserve">
<g>
	<circle opacity="0.37" fill="#2772B8" cx="96.49" cy="152.57" r="11.91"/>
	<g>
		<path fill="#2772B8" d="M95.78,153.09c-34.1,0-61.85-27.74-61.85-61.85S61.67,29.4,95.78,29.4s61.85,27.74,61.85,61.85
			S129.88,153.09,95.78,153.09z M95.78,31.4c-33,0-59.85,26.85-59.85,59.85s26.85,59.85,59.85,59.85c33,0,59.85-26.85,59.85-59.85
			S128.78,31.4,95.78,31.4z"/>
	</g>
	<circle fill="#2772B8" cx="96.49" cy="152.57" r="6.28"/>
	<g>
		<path fill="#2772B8" d="M123.96,89.02c-0.01-2.2-0.03-4.4-0.03-6.6c0-0.51-0.32-0.97-0.8-1.14c-0.48-0.18-1.02-0.04-1.35,0.35
			c-1.17,1.38-3.67,2.28-6.36,2.28c-3.61,0-6.16-1.5-6.81-2.98c-0.19-0.44-0.63-0.73-1.11-0.73c-0.48,0-0.92,0.29-1.11,0.73
			c-0.46,1.05-1.9,2.1-3.97,2.63L101,77.39c-0.61-2.63-5.45-3.6-9.37-3.95c1.9-1.26,3.16-3.42,3.16-5.86c0-2.52-1.37-4.87-3.55-6.11
			c-1.08-0.63-2.31-0.97-3.56-0.97c-3.88,0-7.03,3.15-7.03,7.03c0,2.36,1.2,4.54,3.13,5.83c-4.11,0.28-9.52,1.19-10.29,4.03
			l-4,14.78c-0.7,1.85,0.45,4.14,2.47,4.91c1.69,0.65,4.15,0.12,5.53-3.5l0.65-1.93l-0.27,25.01c-0.02,1.49,0.72,2.76,2.08,3.55
			c0.94,0.55,2.09,0.83,3.24,0.83c1.12,0,2.25-0.26,3.16-0.79c0.34-0.2,0.65-0.42,0.91-0.67c0.83,0.83,2.03,1.4,3.45,1.55
			c0.26,0.03,0.52,0.04,0.77,0.04c2.51,0,4.49-1.35,4.95-3.45c0.06-0.29,0.2-4.87,0.28-8.17c2.65,2.92,6.14,5.41,10.3,7.21
			c0.15,0.07,0.32,0.1,0.48,0.1s0.33-0.03,0.48-0.1c9.86-4.27,15.99-12.36,15.99-21.12C123.99,93.43,123.97,91.22,123.96,89.02z
			 M87.68,62.93c0.82,0,1.63,0.22,2.35,0.64c1.44,0.82,2.33,2.35,2.33,4c0,2.54-2.06,4.6-4.6,4.6c-0.82,0-1.63-0.22-2.34-0.64
			c-1.44-0.82-2.33-2.35-2.33-4C83.09,64.99,85.15,62.93,87.68,62.93z M94.07,117.19c-0.26,1.18-1.74,1.65-3.08,1.51
			c-0.93-0.1-2.49-0.63-2.51-2.01l-0.01-17.61c0-0.67-0.55-1.22-1.22-1.22h0c-0.67,0-1.22,0.55-1.22,1.22l0.01,17.57
			c0,0.01,0,0.01,0,0.02c0,0.01,0,0.03,0,0.04v0.02c0,0.22,0,0.9-0.88,1.4c-1.09,0.63-2.87,0.62-3.97-0.03
			c-0.89-0.52-0.89-1.21-0.88-1.43l0.34-32.71c0.01-0.6-0.42-1.11-1.01-1.21c-0.59-0.1-1.17,0.25-1.35,0.81l-3.07,9.18
			c-0.3,0.78-1.12,2.52-2.38,2.05c-0.75-0.29-1.29-1.18-1.02-1.89l4.04-14.89c0.29-1.07,5.07-2.49,12.25-2.35
			c7.17,0.14,10.4,1.65,10.54,2.26l1.37,5.95c-0.14,0-0.27,0.02-0.41,0.02c-2.69,0-5.18-0.89-6.36-2.28
			c-0.33-0.39-0.87-0.53-1.35-0.35c-0.48,0.18-0.8,0.63-0.8,1.14c0,2.2-0.01,4.4-0.03,6.6c-0.01,2.2-0.03,4.41-0.03,6.61
			c0,3.84,1.18,7.56,3.34,10.88C94.34,108.31,94.1,116.79,94.07,117.19z M107.51,114.3c-8.67-3.93-14.04-11.04-14.04-18.67
			c0-2.2,0.01-4.39,0.03-6.59c0.01-1.38,0.02-2.75,0.02-4.13c1.67,0.91,3.81,1.44,6.07,1.44c0.75,0,1.47-0.06,2.17-0.17
			c0,0,0.01,0,0.01,0c0,0,0,0,0,0c2.38-0.36,4.43-1.31,5.73-2.64c1.69,1.73,4.62,2.81,7.92,2.81c2.26,0,4.41-0.53,6.07-1.44
			c0,1.38,0.01,2.75,0.02,4.13c0.01,2.2,0.03,4.4,0.03,6.59C121.55,103.26,116.19,110.37,107.51,114.3z"/>
		<path fill="#2772B8" d="M116.5,91.13c-0.56-0.37-1.32-0.21-1.68,0.35l-7.47,11.42l-4.85-5.62c-0.44-0.51-1.21-0.57-1.72-0.13
			c-0.51,0.44-0.56,1.21-0.13,1.72l5.91,6.84c0.23,0.27,0.57,0.42,0.92,0.42c0.03,0,0.05,0,0.08,0c0.38-0.02,0.73-0.23,0.94-0.55
			l8.35-12.77C117.23,92.25,117.07,91.49,116.5,91.13z"/>
	</g>
</g>
</svg>
