<?xml version="1.0" encoding="utf-8"?>
<!-- Generator: Adobe Illustrator 24.1.0, SVG Export Plug-In . SVG Version: 6.00 Build 0)  -->
<svg version="1.1" id="Warstwa_1" xmlns="http://www.w3.org/2000/svg" xmlns:xlink="http://www.w3.org/1999/xlink" x="0px" y="0px"
	 viewBox="0 0 194.47 194.47" enable-background="new 0 0 194.47 194.47" xml:space="preserve">
<g>
	<g>
		<path fill="#7DB2E1" d="M95.78,153.17c-34.1,0-61.85-27.74-61.85-61.85s27.74-61.85,61.85-61.85s61.85,27.74,61.85,61.85
			S129.88,153.17,95.78,153.17z M95.78,31.48c-33,0-59.85,26.85-59.85,59.85s26.85,59.85,59.85,59.85c33,0,59.85-26.85,59.85-59.85
			S128.78,31.48,95.78,31.48z"/>
	</g>
	<circle fill="#7DB2E1" cx="96.49" cy="152.66" r="6.28"/>
	<circle opacity="0.37" fill="#7DB2E1" cx="96.49" cy="152.66" r="11.91"/>
	<g>
		<path fill="#7DB2E1" d="M115.19,73.96c3.57,0,6.26-2.91,6.26-6.76c0-1.79-0.73-3.38-2.04-4.46c-1.15-0.94-2.67-1.46-4.28-1.46
			c-3.08,0-6.21,2.04-6.21,5.93C108.92,71.05,111.62,73.96,115.19,73.96z M112.44,64.54c0.68-0.57,1.66-0.9,2.69-0.9
			c1.9,0,3.95,1.11,3.95,3.55c0,2.54-1.64,4.39-3.89,4.39s-3.89-1.85-3.89-4.39C111.3,66.07,111.68,65.18,112.44,64.54z"/>
		<path fill="#7DB2E1" d="M120.49,75.01h-10.61c-3.49,0-6.32,2.84-6.32,6.32v5.82c0,0.66,0.53,1.19,1.19,1.19h20.87
			c0.66,0,1.19-0.53,1.19-1.19v-5.82C126.81,77.85,123.98,75.01,120.49,75.01z M124.44,85.97h-2.8v-4.95c0-0.66-0.53-1.19-1.19-1.19
			s-1.19,0.53-1.19,1.19v4.95h-8.14v-4.95c0-0.66-0.53-1.19-1.19-1.19c-0.66,0-1.19,0.53-1.19,1.19v4.95h-2.8v-4.63
			c0-2.18,1.77-3.94,3.94-3.94h10.61c2.18,0,3.94,1.77,3.94,3.94V85.97z"/>
		<path fill="#7DB2E1" d="M77.78,73.96c3.57,0,6.26-2.91,6.26-6.76c0-1.79-0.73-3.38-2.04-4.46c-1.15-0.94-2.67-1.46-4.28-1.46
			c-3.08,0-6.21,2.04-6.21,5.93C71.52,71.05,74.21,73.96,77.78,73.96z M75.03,64.54c0.68-0.57,1.66-0.9,2.69-0.9
			c1.9,0,3.95,1.11,3.95,3.55c0,2.54-1.64,4.39-3.89,4.39s-3.89-1.85-3.89-4.39C73.89,66.07,74.28,65.18,75.03,64.54z"/>
		<path fill="#7DB2E1" d="M88.22,88.34c0.66,0,1.19-0.53,1.19-1.19v-5.82c0-3.49-2.84-6.32-6.32-6.32H72.48
			c-3.49,0-6.32,2.84-6.32,6.32v5.82c0,0.66,0.53,1.19,1.19,1.19H88.22z M68.53,81.33c0-2.18,1.77-3.94,3.94-3.94h10.61
			c2.18,0,3.94,1.77,3.94,3.94v4.63h-2.8v-4.95c0-0.66-0.53-1.19-1.19-1.19s-1.19,0.53-1.19,1.19v4.95h-8.14v-4.95
			c0-0.66-0.53-1.19-1.19-1.19c-0.66,0-1.19,0.53-1.19,1.19v4.95h-2.8V81.33z"/>
		<path fill="#7DB2E1" d="M96.39,94.17c-3.08,0-6.21,2.04-6.21,5.93c0,3.86,2.69,6.76,6.26,6.76c3.57,0,6.27-2.91,6.27-6.76
			c0-1.79-0.73-3.38-2.04-4.46C99.52,94.69,98,94.17,96.39,94.17z M96.45,104.48c-2.25,0-3.89-1.85-3.89-4.39
			c0-2.45,1.92-3.55,3.83-3.55c1.05,0,2.06,0.34,2.77,0.92c0.78,0.64,1.18,1.53,1.18,2.63C100.33,102.64,98.7,104.48,96.45,104.48z"
			/>
		<path fill="#7DB2E1" d="M101.75,107.91H91.14c-3.49,0-6.32,2.84-6.32,6.32v5.82c0,0.66,0.53,1.19,1.19,1.19h20.87
			c0.66,0,1.19-0.53,1.19-1.19v-5.82C108.07,110.74,105.23,107.91,101.75,107.91z M105.69,118.86h-2.8v-4.95
			c0-0.66-0.53-1.19-1.19-1.19c-0.66,0-1.19,0.53-1.19,1.19v4.95h-8.14v-4.95c0-0.66-0.53-1.19-1.19-1.19
			c-0.66,0-1.19,0.53-1.19,1.19v4.95h-2.8v-4.63c0-2.18,1.77-3.94,3.94-3.94h10.61c2.18,0,3.94,1.77,3.94,3.94V118.86z"/>
		<path fill="#7DB2E1" d="M90.08,69.87c0.12,0,0.24-0.02,0.36-0.06c1.92-0.61,3.92-0.92,5.95-0.92c0.91,0,1.82,0.06,2.72,0.19
			l-2.56,1.45c-0.57,0.32-0.77,1.05-0.45,1.62c0.22,0.39,0.62,0.6,1.03,0.6c0.2,0,0.4-0.05,0.59-0.16l5.56-3.16
			c0.32-0.18,0.54-0.51,0.59-0.88c0.05-0.37-0.08-0.74-0.35-1l-4.58-4.46c-0.47-0.46-1.22-0.45-1.68,0.02
			c-0.46,0.47-0.45,1.22,0.02,1.68l1.95,1.9c-0.95-0.12-1.9-0.19-2.86-0.19c-2.28,0-4.52,0.35-6.67,1.03
			c-0.63,0.2-0.97,0.87-0.77,1.49C89.11,69.54,89.58,69.87,90.08,69.87z"/>
		<path fill="#7DB2E1" d="M116.63,101.18l-2.62,0.74c0.58-0.76,1.11-1.55,1.59-2.39c1.14-1.97,1.96-4.09,2.44-6.3
			c0.14-0.64-0.27-1.27-0.91-1.41c-0.64-0.14-1.27,0.27-1.41,0.91c-0.43,1.97-1.16,3.86-2.18,5.62c-0.46,0.79-0.97,1.55-1.53,2.26
			l0.02-2.94c0-0.66-0.52-1.19-1.18-1.2c0,0-0.01,0-0.01,0c-0.65,0-1.18,0.53-1.19,1.18l-0.05,6.39c0,0.37,0.17,0.73,0.47,0.95
			c0.21,0.16,0.46,0.24,0.72,0.24c0.11,0,0.22-0.01,0.32-0.04l6.15-1.73c0.63-0.18,1-0.83,0.82-1.47
			C117.92,101.37,117.26,101,116.63,101.18z"/>
		<path fill="#7DB2E1" d="M79.46,98.46c-0.46-0.79-0.86-1.61-1.2-2.45l2.53,1.49c0.57,0.33,1.29,0.14,1.63-0.42
			c0.33-0.57,0.14-1.29-0.42-1.63l-5.51-3.24c-0.32-0.19-0.71-0.22-1.06-0.07c-0.34,0.14-0.6,0.44-0.69,0.8l-1.58,6.19
			c-0.16,0.64,0.22,1.28,0.86,1.44c0.1,0.03,0.2,0.04,0.29,0.04c0.53,0,1.01-0.36,1.15-0.9l0.67-2.64c0.37,0.88,0.79,1.74,1.27,2.57
			c1.14,1.97,2.56,3.74,4.23,5.26c0.23,0.21,0.51,0.31,0.8,0.31c0.32,0,0.64-0.13,0.88-0.39c0.44-0.49,0.41-1.24-0.08-1.68
			C81.75,101.8,80.48,100.22,79.46,98.46z"/>
	</g>
</g>
</svg>
