<?xml version="1.0" encoding="utf-8"?>
<!-- Generator: Adobe Illustrator 24.1.0, SVG Export Plug-In . SVG Version: 6.00 Build 0)  -->
<svg version="1.1" id="Warstwa_1" xmlns="http://www.w3.org/2000/svg" xmlns:xlink="http://www.w3.org/1999/xlink" x="0px" y="0px"
	 viewBox="0 0 194.47 194.47" enable-background="new 0 0 194.47 194.47" xml:space="preserve">
<g>
	<g>
		<path fill="#7DB2E1" d="M95.78,153.39c-34.1,0-61.85-27.74-61.85-61.85s27.74-61.85,61.85-61.85s61.85,27.74,61.85,61.85
			S129.88,153.39,95.78,153.39z M95.78,31.69c-33,0-59.85,26.85-59.85,59.85s26.85,59.85,59.85,59.85c33,0,59.85-26.85,59.85-59.85
			S128.78,31.69,95.78,31.69z"/>
	</g>
	<circle fill="#7DB2E1" cx="96.49" cy="152.87" r="6.28"/>
	<circle opacity="0.37" fill="#7DB2E1" cx="96.49" cy="152.87" r="11.91"/>
	<path fill="#7DB2E1" d="M126.69,67.55c-3.82-3.82-8.9-5.92-14.3-5.92c-11.22,0-14.11,5.22-15.26,9.24
		c-1.14-4.02-4.04-9.24-15.26-9.24c-5.4,0-10.48,2.1-14.3,5.92c-6.85,6.85-7.12,15.91-0.76,26.19c0.44,0.71,1.37,0.93,2.09,0.49
		c0.71-0.44,0.93-1.37,0.49-2.09c-5.68-9.2-5.58-16.55,0.33-22.45c3.25-3.25,7.56-5.03,12.15-5.03c10.88,0,11.99,5.17,12.8,8.94
		c0.31,1.44,0.58,2.69,1.39,3.5c0.28,0.29,0.67,0.45,1.07,0.45c0.4,0,0.79-0.16,1.07-0.45c0.81-0.81,1.08-2.06,1.39-3.5
		c0.81-3.77,1.92-8.94,12.8-8.94c4.59,0,8.91,1.79,12.15,5.03c3.38,3.38,4.83,7.18,4.42,11.6c-0.44,4.71-2.97,9.98-7.54,15.74
		c-0.12-0.03-0.24-0.05-0.37-0.05h-11.56l-3.91-13.23c-0.19-0.64-0.78-1.09-1.45-1.09s-1.26,0.44-1.45,1.09
		c-2.49,8.42-4.52,13.95-7.19,21.07l-2.42-6.83c-0.21-0.6-0.79-1.01-1.43-1.01h-4.94l-4.16-21.44c-0.14-0.72-0.79-1.2-1.51-1.23
		c-0.73,0.01-1.35,0.54-1.48,1.26l-3.59,21.41H62.69c-0.84,0-1.52,0.68-1.52,1.52c0,0.84,0.68,1.52,1.52,1.52h14.54
		c0.74,0,1.37-0.53,1.49-1.26l2.42-14.41l2.8,14.45c0.14,0.71,0.76,1.23,1.49,1.23h5.12l3.45,9.73c0.21,0.6,0.78,1,1.41,1.01
		c0,0,0.01,0,0.01,0c0.63,0,1.2-0.39,1.42-0.98l0.88-2.33c2.43-6.46,4.31-11.46,6.37-17.99l2.8,9.48c0.19,0.64,0.78,1.09,1.45,1.09
		h10.56c-0.99,1.11-2.05,2.24-3.18,3.39c-7.26,7.34-15.24,12.99-17.52,14.55c-0.32,0.22-0.59,0.41-0.81,0.57
		c-0.1,0.07-0.2,0.14-0.29,0.21c-0.08-0.06-0.16-0.12-0.25-0.18c-0.27-0.2-0.61-0.45-1.03-0.74c-2.71-1.87-9.74-6.93-16.47-13.56
		c-0.6-0.59-1.56-0.58-2.14,0.02c-0.59,0.6-0.58,1.56,0.02,2.14c6.9,6.81,14.1,11.99,16.87,13.9c0.39,0.27,0.7,0.5,0.95,0.68
		c0.83,0.62,1.43,0.92,2.03,0.92c0.6,0,1.21-0.31,2.07-0.92c0.21-0.15,0.46-0.33,0.76-0.54c5.07-3.47,30.45-21.68,32.05-38.87
		C132.47,76.27,130.69,71.55,126.69,67.55z"/>
</g>
</svg>
