<?xml version="1.0" encoding="utf-8"?>
<!-- Generator: Adobe Illustrator 24.1.0, SVG Export Plug-In . SVG Version: 6.00 Build 0)  -->
<svg version="1.1" id="Warstwa_1" xmlns="http://www.w3.org/2000/svg" xmlns:xlink="http://www.w3.org/1999/xlink" x="0px" y="0px"
	 viewBox="0 0 194.47 194.47" enable-background="new 0 0 194.47 194.47" xml:space="preserve">
<g>
	<g>
		<path fill="#7DB3E2" d="M96.08,153.93c-34.1,0-61.85-27.74-61.85-61.85s27.74-61.85,61.85-61.85s61.85,27.74,61.85,61.85
			S130.18,153.93,96.08,153.93z M96.08,32.23c-33,0-59.85,26.85-59.85,59.85s26.85,59.85,59.85,59.85c33,0,59.85-26.85,59.85-59.85
			S129.08,32.23,96.08,32.23z"/>
	</g>
	<circle fill="#7DB3E2" cx="96.79" cy="153.41" r="6.28"/>
	<circle opacity="0.37" fill="#7DB3E2" cx="96.79" cy="153.41" r="11.91"/>
	<g>
		<path fill="#7DB3E2" d="M80.32,94.72c0.93-0.15,2.2-0.79,3.06-2.98l1.47-2.82l-0.13,10.34l-2.77,6.97
			c-0.04,0.11-0.07,0.23-0.08,0.35c-0.19,2.63,1.66,4.36,3.59,4.71c0.27,0.05,0.53,0.07,0.8,0.07c0.86,0,1.7-0.25,2.44-0.72
			c1.05-0.68,1.82-1.78,2.24-3.19l2.3-7.8c0.03-0.11,0.05-0.22,0.05-0.33v-4.09l4.99,0.26l-0.07,5.14c0,0.01,0,0.01,0,0.02
			c0,2.38,2.32,3.8,4.57,3.8c1.05,0,2.02-0.31,2.74-0.88c0.61-0.48,1.34-1.38,1.34-2.92v-9.79c0-1.98-1.66-4.37-3.79-4.48
			l-5.13-0.26l-0.02-1.96l8.14-5.15c1.38-0.83,1.92-1.86,2.13-2.58c0.28-0.97,0.16-1.98-0.35-2.86c-0.49-0.85-1.29-1.46-2.23-1.72
			c-1.02-0.28-2.11-0.12-3.15,0.46c-0.8,0.45-1.61,0.97-2.47,1.53c-2.97,1.91-6.33,4.08-9.71,3.29c-0.07-0.02-0.14-0.03-0.21-0.03
			c-0.36-0.02-0.9-0.14-1.47-0.28c-1.16-0.27-2.61-0.61-3.95-0.37c-1.19,0.22-2.73,0.98-3.39,3.4l-4.55,10.45
			c-0.01,0.02-0.01,0.03-0.02,0.05c-0.38,1.01-0.16,2.17,0.6,3.1C78.03,94.42,79.21,94.9,80.32,94.72z M78.84,91.22l4.57-10.5
			c0.02-0.06,0.04-0.11,0.06-0.17c0.56-2.13,1.82-2.07,4.55-1.43c0.63,0.15,1.24,0.29,1.78,0.33c0.65,0.14,1.28,0.21,1.91,0.21
			c3.56,0,6.82-2.1,9.51-3.83c0.83-0.53,1.61-1.04,2.35-1.45c1.03-0.58,1.84-0.22,2.2,0.39c0.35,0.6,0.28,1.51-0.96,2.25
			c-0.01,0.01-0.02,0.01-0.03,0.02l-8.71,5.51c-0.35,0.22-0.55,0.6-0.55,1.01l0.05,3.72c0.01,0.62,0.5,1.13,1.12,1.16l6.24,0.31
			c0.68,0.03,1.56,1.23,1.56,2.13v9.79c0,1.26-1.09,1.45-1.73,1.45c-1.07,0-2.21-0.58-2.22-1.44l0.09-6.26
			c0.01-0.63-0.48-1.16-1.11-1.19l-7.36-0.39c-0.32-0.02-0.64,0.1-0.87,0.32c-0.23,0.22-0.37,0.53-0.37,0.85v5.16l-2.25,7.63
			c-0.55,1.88-1.81,2.37-2.8,2.19c-0.86-0.15-1.68-0.85-1.67-2.06l2.78-6.98c0.05-0.13,0.08-0.28,0.08-0.42L87.26,84
			c0.01-0.54-0.36-1.02-0.89-1.16c-0.53-0.13-1.08,0.11-1.33,0.6l-3.78,7.27c-0.02,0.04-0.04,0.08-0.06,0.12
			c-0.34,0.91-0.82,1.49-1.26,1.56c-0.35,0.06-0.69-0.19-0.88-0.42C78.87,91.72,78.78,91.42,78.84,91.22z"/>
		<path fill="#7DB3E2" d="M92.32,75.97c3.71,0,6.73-3.02,6.73-6.73c0-3.71-3.02-6.73-6.73-6.73s-6.73,3.02-6.73,6.73
			C85.59,72.95,88.61,75.97,92.32,75.97z M92.32,64.86c2.41,0,4.38,1.96,4.38,4.38c0,2.41-1.96,4.38-4.38,4.38
			c-2.41,0-4.38-1.96-4.38-4.38C87.94,66.83,89.9,64.86,92.32,64.86z"/>
		<path fill="#7DB3E2" d="M126.06,99.75c0-0.02,0-0.04,0-0.07c0-0.02-0.01-0.03-0.01-0.05c0-0.02-0.01-0.04-0.01-0.07
			c0-0.02-0.01-0.03-0.01-0.05c-0.01-0.02-0.01-0.04-0.02-0.06c-0.01-0.02-0.01-0.03-0.02-0.05c-0.01-0.02-0.01-0.04-0.02-0.06
			c-0.01-0.02-0.02-0.03-0.02-0.05c-0.01-0.02-0.02-0.04-0.03-0.06c-0.01-0.02-0.02-0.03-0.03-0.05c-0.01-0.02-0.02-0.03-0.03-0.05
			c-0.01-0.02-0.02-0.03-0.03-0.05c-0.01-0.02-0.02-0.03-0.03-0.05c-0.01-0.01-0.03-0.03-0.04-0.04c-0.01-0.01-0.02-0.03-0.04-0.04
			c-0.01-0.01-0.03-0.03-0.04-0.04c-0.01-0.01-0.03-0.03-0.04-0.04c-0.01-0.01-0.03-0.02-0.05-0.03c-0.01-0.01-0.03-0.02-0.04-0.03
			c-0.02-0.01-0.03-0.02-0.05-0.03c-0.02-0.01-0.03-0.02-0.05-0.03c-0.02-0.01-0.03-0.02-0.05-0.03c-0.02-0.01-0.03-0.02-0.05-0.02
			c-0.02-0.01-0.04-0.01-0.06-0.02c-0.02-0.01-0.03-0.01-0.05-0.02c-0.02-0.01-0.04-0.01-0.06-0.02c-0.02,0-0.04-0.01-0.06-0.01
			c-0.02,0-0.04-0.01-0.06-0.01c-0.02,0-0.04-0.01-0.06-0.01c-0.02,0-0.04,0-0.06,0c-0.02,0-0.04,0-0.06,0l-14.17-0.08
			c-0.32,0-0.62,0.12-0.84,0.35c-0.22,0.22-0.35,0.53-0.34,0.84l0.09,5.93l-12.97-0.07c-0.32-0.01-0.62,0.12-0.84,0.35
			c-0.22,0.22-0.35,0.53-0.34,0.84l0.09,5.93l-12.97-0.07c-0.32,0-0.62,0.12-0.84,0.35s-0.35,0.53-0.34,0.84l0.09,5.94H68.43
			c-0.65,0-1.18,0.53-1.18,1.18s0.53,1.18,1.18,1.18h56.46c0.65,0,1.18-0.53,1.18-1.18V99.81
			C126.06,99.79,126.06,99.77,126.06,99.75z M109.65,108.03v11.76H97.94v-8.28c0-0.1-0.01-0.2-0.04-0.3l-0.05-3.25L109.65,108.03z
			 M83.79,115.01l11.8,0.07v4.71H83.86L83.79,115.01z M112,119.79v-15.15c0-0.1-0.01-0.19-0.04-0.28l-0.05-3.44l11.8,0.07v18.81H112
			z"/>
	</g>
</g>
</svg>
