<?xml version="1.0" encoding="utf-8"?>
<!-- Generator: Adobe Illustrator 24.1.0, SVG Export Plug-In . SVG Version: 6.00 Build 0)  -->
<svg version="1.1" id="Warstwa_1" xmlns="http://www.w3.org/2000/svg" xmlns:xlink="http://www.w3.org/1999/xlink" x="0px" y="0px"
	 viewBox="0 0 194.47 194.47" enable-background="new 0 0 194.47 194.47" xml:space="preserve">
<g>
	<circle opacity="0.37" fill="#174789" cx="96.79" cy="153.13" r="11.91"/>
	<g>
		<path fill="#17468A" d="M96.08,153.65c-34.1,0-61.85-27.74-61.85-61.85s27.74-61.85,61.85-61.85s61.85,27.74,61.85,61.85
			S130.18,153.65,96.08,153.65z M96.08,31.95c-33,0-59.85,26.85-59.85,59.85s26.85,59.85,59.85,59.85c33,0,59.85-26.85,59.85-59.85
			S129.08,31.95,96.08,31.95z"/>
	</g>
	<circle fill="#17468A" cx="96.79" cy="153.13" r="6.28"/>
	<g>
		<path fill="#17468A" d="M88.02,94.32c-0.11,0.47,0.08,0.96,0.47,1.24c0.39,0.28,0.92,0.29,1.33,0.04l6.21-3.93l6.53,3.94
			c0.19,0.11,0.4,0.17,0.62,0.17c0.25,0,0.5-0.08,0.71-0.23c0.39-0.29,0.56-0.78,0.44-1.25l-1.82-7.13l5.77-5
			c0.37-0.32,0.5-0.82,0.35-1.28c-0.15-0.46-0.57-0.78-1.05-0.81l-7.34-0.47l-2.97-7.03c-0.19-0.44-0.62-0.73-1.1-0.73
			c0,0-0.01,0-0.01,0c-0.48,0-0.92,0.3-1.09,0.75l-2.72,6.83l-7.6,0.65c-0.48,0.04-0.89,0.37-1.04,0.83c-0.14,0.46,0,0.96,0.38,1.27
			l5.66,4.7L88.02,94.32z M87.86,82.22l5.44-0.46c0.45-0.04,0.84-0.33,1.01-0.75l1.92-4.82l2.12,5.03c0.18,0.42,0.57,0.7,1.02,0.73
			l5.17,0.33l-4.13,3.57c-0.34,0.3-0.49,0.76-0.37,1.2l1.28,5.02l-4.67-2.82c-0.19-0.11-0.4-0.17-0.62-0.17
			c-0.22,0-0.44,0.06-0.64,0.18l-4.38,2.77l1.24-5.32c0.1-0.44-0.05-0.9-0.4-1.19L87.86,82.22z"/>
		<path fill="#17468A" d="M113.69,99.53c3.37-3.99,5.41-9.14,5.41-14.77c0-12.63-10.28-22.91-22.91-22.91S73.27,72.13,73.27,84.76
			c0,5.44,1.91,10.44,5.08,14.38l-4.8,15.17c-0.13,0.4-0.03,0.83,0.24,1.15c0.28,0.31,0.7,0.46,1.11,0.38l9.17-1.67l6.3,6.77
			c0.23,0.24,0.54,0.38,0.87,0.38c0.06,0,0.13-0.01,0.19-0.02c0.39-0.06,0.73-0.32,0.89-0.68l4.03-8.82l3.79,8.9
			c0.16,0.39,0.52,0.66,0.94,0.71c0.05,0.01,0.11,0.01,0.16,0.01c0.36,0,0.7-0.16,0.93-0.45l5.88-7.37l9.38,1.98
			c0.42,0.09,0.86-0.06,1.14-0.38c0.28-0.32,0.37-0.78,0.23-1.18L113.69,99.53z M96.19,64.23c11.32,0,20.53,9.21,20.53,20.53
			s-9.21,20.53-20.53,20.53s-20.53-9.21-20.53-20.53S84.87,64.23,96.19,64.23z M90.92,118.02l-5.53-5.94
			c-0.28-0.3-0.69-0.43-1.09-0.36l-7.87,1.43l3.78-11.97c3.77,3.67,8.8,6.06,14.37,6.44l0.52,1.22L90.92,118.02z M107.84,111.13
			c-0.44-0.09-0.9,0.07-1.18,0.42l-5.09,6.39l-4.38-10.28c5.66-0.25,10.79-2.55,14.66-6.18l4.02,11.35L107.84,111.13z"/>
		<path fill="#17468A" d="M96.19,101.62c9.29,0,16.85-7.56,16.85-16.85s-7.56-16.85-16.85-16.85s-16.85,7.56-16.85,16.85
			S86.89,101.62,96.19,101.62z M96.19,70.3c7.98,0,14.47,6.49,14.47,14.47c0,7.98-6.49,14.47-14.47,14.47s-14.47-6.49-14.47-14.47
			C81.72,76.79,88.21,70.3,96.19,70.3z"/>
	</g>
</g>
</svg>
