<?xml version="1.0" encoding="utf-8"?>
<!-- Generator: Adobe Illustrator 24.1.0, SVG Export Plug-In . SVG Version: 6.00 Build 0)  -->
<svg version="1.1" id="Warstwa_1" xmlns="http://www.w3.org/2000/svg" xmlns:xlink="http://www.w3.org/1999/xlink" x="0px" y="0px"
	 viewBox="0 0 194.47 194.47" enable-background="new 0 0 194.47 194.47" xml:space="preserve">
<g>
	<circle opacity="0.37" fill="#164688" cx="96.79" cy="153.13" r="11.91"/>
	<g>
		<path fill="#174689" d="M96.08,153.65c-34.1,0-61.85-27.74-61.85-61.85s27.74-61.85,61.85-61.85s61.85,27.74,61.85,61.85
			S130.18,153.65,96.08,153.65z M96.08,31.96c-33,0-59.85,26.85-59.85,59.85s26.85,59.85,59.85,59.85c33,0,59.85-26.85,59.85-59.85
			S129.08,31.96,96.08,31.96z"/>
	</g>
	<circle fill="#174689" cx="96.79" cy="153.13" r="6.28"/>
	<g>
		<path fill="#174689" d="M120.57,90.94c-1.61-1.28-3.93-1.53-5.93-1.14c0.14-1.13,0.18-2.2,0.09-3.16
			c-0.05-0.58-0.54-1.02-1.12-1.02H73.89c-0.58,0-1.07,0.44-1.12,1.02c-0.53,5.82,3.28,16.67,9.75,22.15H71.84
			c-0.33,0-0.64,0.14-0.85,0.39c-0.21,0.25-0.31,0.58-0.26,0.9c0.37,2.41,6.92,7.48,11.46,7.48h23.13c4.44,0,11.11-5.13,11.46-7.48
			c0.05-0.32-0.05-0.65-0.26-0.9c-0.21-0.25-0.52-0.39-0.85-0.39h-10.75c1.49-1.31,2.89-2.97,4.14-4.82
			c0.11-0.02,0.23-0.03,0.34-0.09c2.07-1.22,4.23-2,6.14-2.7c3.29-1.19,6.12-2.22,6.67-4.98C122.65,94.01,122.07,92.14,120.57,90.94
			z M113.51,111.05c-1.8,1.73-5.51,4.28-8.2,4.28H82.19c-2.9,0-6.55-2.54-8.27-4.28H113.51z M101.29,108.66
			c-0.08,0.04-0.15,0.09-0.21,0.15H86.43c-0.06-0.06-0.13-0.11-0.21-0.15C79.44,104.91,74.99,94,74.97,87.88h37.58
			C112.52,94.41,107.31,105.32,101.29,108.66z M120.01,95.78c-0.29,1.44-2.18,2.19-5.23,3.3c-1.15,0.42-2.39,0.88-3.66,1.44
			c1.41-2.72,2.5-5.6,3.11-8.27c1.74-0.61,3.83-0.44,4.95,0.46C120,93.36,120.28,94.4,120.01,95.78z"/>
		<path fill="#174689" d="M100.47,81.33c0.21,0.19,0.48,0.29,0.75,0.29c0.31,0,0.61-0.13,0.84-0.37c0.41-0.46,0.38-1.17-0.09-1.59
			c-1.52-1.36-1.12-3.49-0.38-4.5c1.41-1.93,1.81-4.93-0.49-7.3c-0.43-0.44-1.14-0.46-1.59-0.02c-0.45,0.43-0.46,1.14-0.02,1.59
			c1.48,1.52,1.08,3.32,0.29,4.4C98.28,75.87,98.13,79.23,100.47,81.33z"/>
		<path fill="#174689" d="M91.08,76.47c0.17,1.61,0.98,3.02,2.36,4.07c0.2,0.15,0.44,0.23,0.68,0.23c0.34,0,0.67-0.15,0.9-0.44
			c0.38-0.49,0.28-1.2-0.21-1.58c-0.87-0.66-1.38-1.53-1.48-2.51c-0.11-1.02,0.24-2.09,0.92-2.88c1.86-2.15,2.45-5.71-0.64-8.41
			c-0.47-0.41-1.18-0.36-1.59,0.11c-0.41,0.47-0.36,1.18,0.11,1.59c2.08,1.82,1.58,3.91,0.42,5.25
			C91.45,73.13,90.91,74.85,91.08,76.47z"/>
		<path fill="#174689" d="M86.56,81.33c0.21,0.19,0.48,0.29,0.75,0.29c0.31,0,0.61-0.13,0.84-0.37c0.41-0.46,0.38-1.17-0.09-1.59
			c-1.52-1.36-1.12-3.49-0.38-4.5c1.41-1.93,1.81-4.93-0.49-7.29c-0.43-0.44-1.14-0.46-1.59-0.02c-0.45,0.43-0.46,1.14-0.02,1.59
			c1.48,1.52,1.08,3.32,0.29,4.4C84.37,75.87,84.21,79.23,86.56,81.33z"/>
	</g>
</g>
</svg>
