<?xml version="1.0" encoding="utf-8"?>
<!-- Generator: Adobe Illustrator 24.1.0, SVG Export Plug-In . SVG Version: 6.00 Build 0)  -->
<svg version="1.1" id="Warstwa_1" xmlns="http://www.w3.org/2000/svg" xmlns:xlink="http://www.w3.org/1999/xlink" x="0px" y="0px"
	 viewBox="0 0 194.47 194.47" enable-background="new 0 0 194.47 194.47" xml:space="preserve">
<g>
	<circle opacity="0.37" fill="#2772B8" cx="96.49" cy="152.49" r="11.91"/>
	<g>
		<path fill="#2772B8" d="M95.78,153c-34.1,0-61.85-27.74-61.85-61.85s27.74-61.85,61.85-61.85s61.85,27.74,61.85,61.85
			S129.88,153,95.78,153z M95.78,31.31c-33,0-59.85,26.85-59.85,59.85S62.78,151,95.78,151c33,0,59.85-26.85,59.85-59.85
			S128.78,31.31,95.78,31.31z"/>
	</g>
	<circle fill="#2772B8" cx="96.49" cy="152.49" r="6.28"/>
	<g>
		<path fill="#2772B8" d="M67.7,91.18h-4.17v2.78h2.78v9.72v11.11v6.94h2.78v-5.56h18.06v5.56h2.78v-6.94v-11.11v-9.72h31.94v29.17
			h2.78V93.96h2.78v-2.78H88.54H67.7z M69.09,113.4v-8.33h18.06v8.33H69.09z M87.15,102.29H69.09v-8.33h18.06V102.29z"/>
		<path fill="#2772B8" d="M70.48,87.02h11.11v2.78h2.78v-2.78h6.94v2.78h2.78v-2.78h11.11c0.77,0,1.39-0.62,1.39-1.39V62.02
			c0-0.77-0.62-1.39-1.39-1.39H70.48c-0.77,0-1.39,0.62-1.39,1.39v23.61C69.09,86.39,69.71,87.02,70.48,87.02z M71.87,63.4h31.94
			v20.83H71.87V63.4z"/>
		<path fill="#2772B8" d="M124.65,77.29h-1.39V75.9c0-0.77-0.62-1.39-1.39-1.39h-11.11c-0.77,0-1.39,0.62-1.39,1.39v13.89h2.78
			v-12.5h8.33v12.5h2.78v-2.78h1.39c1.53,0,2.78-1.25,2.78-2.78v-4.17C127.42,78.54,126.18,77.29,124.65,77.29z M124.65,84.24h-1.39
			v-4.17h1.39V84.24z"/>
		<path fill="#2772B8" d="M115.07,71.12l2.49,1.23l0.69-1.39c0.62-1.26,0.63-2.72,0.03-3.99c-0.24-0.5-0.23-1.06,0-1.56l0.68-1.4
			l-2.5-1.21l-0.68,1.4c-0.61,1.26-0.61,2.7-0.01,3.96c0.24,0.5,0.24,1.07-0.01,1.57L115.07,71.12z"/>
		<rect x="76.04" y="95.35" fill="#2772B8" width="4.17" height="2.78"/>
		<rect x="76.04" y="106.46" fill="#2772B8" width="4.17" height="2.78"/>
	</g>
</g>
</svg>
