<?xml version="1.0" encoding="utf-8"?>
<!-- Generator: Adobe Illustrator 24.1.0, SVG Export Plug-In . SVG Version: 6.00 Build 0)  -->
<svg version="1.1" id="Warstwa_1" xmlns="http://www.w3.org/2000/svg" xmlns:xlink="http://www.w3.org/1999/xlink" x="0px" y="0px"
	 viewBox="0 0 194.47 194.47" enable-background="new 0 0 194.47 194.47" xml:space="preserve">
<g>
	<circle opacity="0.37" fill="#9AC455" cx="96.49" cy="152.47" r="11.91"/>
	<g>
		<path fill="#9AC456" d="M95.78,152.99c-34.1,0-61.85-27.74-61.85-61.85S61.67,29.3,95.78,29.3s61.85,27.74,61.85,61.85
			S129.88,152.99,95.78,152.99z M95.78,31.3c-33,0-59.85,26.85-59.85,59.85s26.85,59.85,59.85,59.85c33,0,59.85-26.85,59.85-59.85
			S128.78,31.3,95.78,31.3z"/>
	</g>
	<circle fill="#9AC456" cx="96.49" cy="152.47" r="6.28"/>
	<g>
		<path fill="#9AC456" d="M125.19,99.71l15.87-5.28l-8.65-25.98l-15.87,5.29l0.46,1.39l-8.3,2.76l-8.84-1.95l-0.9-2.84
			c-0.09-0.29-0.3-0.53-0.56-0.67c-0.15-0.1-0.33-0.16-0.52-0.18l-7.48-0.75c-0.11-0.01-0.21-0.01-0.31,0.01l-3.53-0.33
			c-0.24-0.02-0.47,0.04-0.67,0.15l-10.67,3.55l0.36-1.08l-16.07-5.35l-8.76,26.33l16.07,5.35l0.67-2.02
			c0.29,0.42,0.7,0.83,1.25,1.24c0.03,0.17,0.06,0.34,0.12,0.51c0.35,1.05,1.09,1.9,2.08,2.4c0.58,0.29,1.22,0.44,1.85,0.44
			c0.44,0,0.89-0.07,1.32-0.21c0.11-0.04,0.2-0.09,0.31-0.14l1.33,0.66c0.28,1.14,1.02,2.16,2.15,2.73
			c0.59,0.29,1.22,0.44,1.86,0.44c0.44,0,0.88-0.07,1.31-0.21c0.11-0.04,0.21-0.09,0.31-0.14l1.06,0.53
			c0.03,0.11,0.04,0.22,0.07,0.33c0.35,1.05,1.09,1.91,2.08,2.4c0.58,0.29,1.22,0.44,1.85,0.44c0.44,0,0.88-0.07,1.31-0.21
			c0.11-0.04,0.21-0.09,0.31-0.14l1.06,0.53c0.28,1.14,1.02,2.16,2.15,2.73c0.59,0.3,1.22,0.44,1.85,0.44
			c0.62,0,1.22-0.14,1.78-0.41l3.81,1.9c0.59,0.3,1.22,0.44,1.86,0.44c0.44,0,0.88-0.07,1.31-0.21c1.05-0.35,1.9-1.09,2.4-2.08
			c0.39-0.78,0.51-1.65,0.39-2.48l0.75,0.37c2.05,1.02,4.54,0.19,5.57-1.86c0.4-0.8,0.51-1.67,0.39-2.49l0.37,0.19
			c2.05,1.02,4.55,0.19,5.57-1.85c0.39-0.79,0.53-1.66,0.39-2.51c0.9,0.35,1.89,0.38,2.82,0.07c1.05-0.35,1.91-1.09,2.41-2.08
			c0.5-0.99,0.58-2.11,0.23-3.17c-0.11-0.34-0.28-0.65-0.47-0.95l1.07-0.35L125.19,99.71z M130.93,71.39l7.18,21.56l-11.45,3.81
			l-7.18-21.56L130.93,71.39z M53.69,93.3l7.29-21.91l11.65,3.88l-7.29,21.91L53.69,93.3z M71.98,100.18
			c-0.43-0.22-0.76-0.59-0.91-1.05c-0.06-0.18-0.08-0.36-0.09-0.55c0-0.12,0.01-0.23,0.03-0.34c0.01-0.03,0.01-0.07,0.02-0.1
			c0.03-0.14,0.08-0.27,0.14-0.4l1.05-2.1c0.22-0.44,0.59-0.76,1.05-0.91c0.11-0.04,0.22-0.06,0.33-0.07c0.03,0,0.06,0,0.09-0.01
			c0.07-0.01,0.15-0.01,0.22-0.01c0.08,0,0.17,0.01,0.25,0.03c0.04,0.01,0.09,0.01,0.13,0.02c0.13,0.03,0.25,0.08,0.37,0.14
			c0.9,0.45,1.26,1.55,0.81,2.44l-1.05,2.1c-0.07,0.13-0.15,0.26-0.25,0.37c-0.02,0.02-0.03,0.03-0.05,0.05
			c-0.09,0.1-0.2,0.19-0.31,0.27c-0.14,0.09-0.28,0.17-0.44,0.22C72.91,100.43,72.42,100.39,71.98,100.18z M78.94,103.66
			c-0.62-0.31-0.97-0.92-1-1.57c0-0.12,0-0.24,0.02-0.35c0.01-0.04,0.01-0.07,0.02-0.11c0.03-0.14,0.08-0.28,0.14-0.41l2.49-4.96
			c0.22-0.44,0.59-0.76,1.05-0.91c0.11-0.04,0.22-0.06,0.33-0.07c0.03,0,0.06,0,0.09-0.01c0.07-0.01,0.15-0.01,0.22-0.01
			c0.08,0,0.16,0.01,0.24,0.03c0.05,0.01,0.09,0.01,0.14,0.02c0.13,0.03,0.25,0.07,0.37,0.13c0,0,0,0,0,0
			c0.9,0.45,1.26,1.54,0.81,2.44l-2.49,4.96c0,0.01-0.01,0.01-0.01,0.02c-0.06,0.12-0.14,0.24-0.23,0.34
			c-0.03,0.03-0.06,0.06-0.09,0.09c-0.08,0.08-0.16,0.15-0.26,0.22c-0.14,0.1-0.3,0.19-0.47,0.25
			C79.87,103.91,79.38,103.88,78.94,103.66z M85.64,107.01c-0.44-0.22-0.76-0.59-0.92-1.06c-0.05-0.16-0.07-0.32-0.08-0.48
			c-0.01-0.14,0-0.27,0.02-0.4c0.01-0.03,0.01-0.06,0.02-0.09c0.03-0.14,0.08-0.28,0.14-0.41l3.07-6.13
			c0.07-0.14,0.16-0.27,0.27-0.38c0.03-0.03,0.05-0.06,0.08-0.09c0.09-0.09,0.19-0.17,0.3-0.24c0.02-0.01,0.04-0.03,0.06-0.04
			c0.13-0.08,0.27-0.14,0.41-0.18c0.03-0.01,0.05-0.01,0.08-0.02c0.12-0.03,0.25-0.05,0.38-0.05c0.03,0,0.07,0,0.1,0
			c0.1,0,0.2,0.02,0.29,0.03c0.03,0.01,0.07,0.01,0.1,0.02c0.13,0.03,0.26,0.08,0.38,0.14c0.05,0.02,0.09,0.06,0.13,0.08
			c0.06,0.04,0.13,0.07,0.18,0.12c0.01,0.01,0.02,0.02,0.04,0.03c0.17,0.14,0.32,0.31,0.42,0.5c0,0,0,0,0,0.01
			c0.06,0.1,0.1,0.21,0.14,0.31c0.03,0.1,0.06,0.21,0.07,0.31c0,0.01,0.01,0.02,0.01,0.03c0.05,0.35-0.01,0.71-0.17,1.05l-3.07,6.13
			c0,0.01-0.01,0.01-0.01,0.02c-0.06,0.12-0.14,0.24-0.23,0.34c-0.03,0.03-0.05,0.06-0.08,0.09c-0.08,0.08-0.17,0.16-0.27,0.23
			c-0.14,0.1-0.3,0.19-0.47,0.24C86.56,107.26,86.07,107.23,85.64,107.01z M92.33,110.36c-0.62-0.31-0.97-0.92-1-1.56
			c-0.01-0.12,0-0.24,0.02-0.36c0.01-0.04,0.01-0.07,0.02-0.11c0.03-0.14,0.08-0.28,0.14-0.42l1.05-2.1
			c0.07-0.14,0.16-0.27,0.26-0.38c0.03-0.03,0.06-0.06,0.08-0.09c0.09-0.09,0.19-0.17,0.29-0.24c0.02-0.01,0.04-0.03,0.06-0.04
			c0.13-0.08,0.27-0.14,0.41-0.18c0.03-0.01,0.06-0.01,0.08-0.02c0.12-0.03,0.25-0.05,0.38-0.05c0.03,0,0.07,0,0.1,0
			c0.09,0,0.19,0.02,0.28,0.03c0.04,0.01,0.07,0.01,0.11,0.02c0.13,0.03,0.26,0.08,0.38,0.14c0.9,0.45,1.27,1.55,0.82,2.44
			l-1.05,2.1c0,0-0.01,0.01-0.01,0.01c-0.06,0.12-0.14,0.23-0.23,0.34c-0.03,0.03-0.06,0.06-0.08,0.09
			c-0.07,0.08-0.15,0.15-0.24,0.21C93.68,110.58,92.96,110.68,92.33,110.36z M120.86,98.85c-0.22,0.44-0.59,0.76-1.06,0.91
			c-0.46,0.15-0.95,0.12-1.39-0.1l-4.73-2.37c-0.14-0.07-0.27-0.16-0.38-0.26c-0.15-0.13-0.33-0.23-0.53-0.27
			c-0.16-0.03-0.31-0.08-0.44-0.15l-2.6-1.3c-0.3-0.15-0.66-0.16-0.97-0.03c-0.31,0.13-0.55,0.39-0.66,0.72
			c-0.05,0.15-0.1,0.3-0.16,0.45c-0.24,0.57,0,1.22,0.55,1.49l5.93,2.97c0.43,0.22,0.76,0.59,0.91,1.05
			c0.15,0.46,0.12,0.96-0.1,1.39c-0.45,0.9-1.54,1.26-2.44,0.81l-5.9-2.96c-0.57-0.29-1.27-0.06-1.56,0.52l-0.26,0.52
			c-0.14,0.28-0.16,0.6-0.07,0.89c0.1,0.29,0.31,0.54,0.58,0.68l2.51,1.26c0.9,0.45,1.26,1.55,0.81,2.45
			c-0.45,0.89-1.55,1.26-2.44,0.81l-2.53-1.27c-0.55-0.28-1.22-0.08-1.53,0.46c-0.13,0.23-0.26,0.43-0.4,0.61
			c-0.32,0.42-0.31,1,0.01,1.41c0.43,0.55,0.5,1.31,0.19,1.94c-0.22,0.44-0.59,0.76-1.06,0.91c-0.46,0.15-0.95,0.12-1.39-0.1
			l-3.02-1.51c0.04-0.07,0.07-0.13,0.11-0.2l1.05-2.1c0.26-0.51,0.39-1.05,0.43-1.59c0.1-1.61-0.75-3.21-2.29-3.98c0,0,0,0,0,0
			c-0.23-0.12-0.47-0.2-0.71-0.27c-0.04-0.01-0.08-0.03-0.12-0.04c-0.23-0.06-0.47-0.1-0.7-0.11c-0.04,0-0.09,0-0.13-0.01
			c-0.24-0.01-0.48-0.01-0.72,0.02c-0.01,0-0.02,0-0.03,0.01c-0.23,0.03-0.46,0.09-0.68,0.16c-0.04,0.01-0.08,0.02-0.12,0.04
			c-0.18,0.06-0.35,0.13-0.52,0.21l0.91-1.82c0.25-0.51,0.39-1.05,0.43-1.59c0.1-1.61-0.75-3.21-2.28-3.98c0,0,0,0,0,0
			c-0.24-0.12-0.48-0.21-0.73-0.28c-0.08-0.02-0.17-0.03-0.25-0.05c-0.17-0.04-0.33-0.07-0.5-0.08c-0.1-0.01-0.2-0.01-0.29-0.01
			c-0.15,0-0.31,0-0.46,0.02c-0.1,0.01-0.2,0.02-0.3,0.04c-0.15,0.03-0.3,0.06-0.44,0.1c-0.09,0.03-0.19,0.05-0.28,0.08
			c-0.16,0.06-0.31,0.13-0.46,0.21c-0.07,0.04-0.14,0.06-0.21,0.1c-0.21,0.12-0.42,0.26-0.61,0.42c-0.04,0.04-0.08,0.08-0.12,0.12
			c-0.13,0.11-0.25,0.23-0.36,0.36c0-0.01,0-0.01,0-0.02c0-0.02-0.01-0.03-0.01-0.05c-0.03-0.22-0.08-0.44-0.15-0.65
			c-0.01-0.05-0.03-0.09-0.04-0.14c-0.08-0.22-0.17-0.43-0.28-0.64c-0.02-0.04-0.04-0.07-0.06-0.1c-0.11-0.19-0.23-0.36-0.37-0.53
			c-0.02-0.03-0.04-0.05-0.06-0.08c-0.16-0.18-0.33-0.34-0.52-0.5c-0.04-0.03-0.08-0.06-0.12-0.09c-0.2-0.15-0.41-0.29-0.64-0.4
			c-0.25-0.12-0.51-0.22-0.77-0.3c0,0,0,0,0,0c-0.78-0.22-1.61-0.2-2.4,0.07c-1.05,0.35-1.91,1.09-2.4,2.08L78,96.28
			c0-0.09-0.02-0.17-0.03-0.26c-0.01-0.06-0.01-0.11-0.02-0.17c-0.03-0.23-0.08-0.46-0.16-0.68c-0.01-0.04-0.03-0.07-0.04-0.11
			c-0.07-0.19-0.15-0.37-0.24-0.55c-0.03-0.05-0.06-0.11-0.09-0.16c-0.12-0.2-0.25-0.4-0.4-0.58c-0.02-0.02-0.03-0.03-0.05-0.05
			c-0.14-0.16-0.3-0.31-0.47-0.45c-0.05-0.04-0.1-0.08-0.15-0.12c-0.2-0.15-0.4-0.29-0.63-0.4c-0.99-0.5-2.12-0.58-3.17-0.23
			c-1.05,0.35-1.91,1.09-2.4,2.08l-0.92,1.84c-0.17-0.39-0.26-0.9-0.4-1.65l-0.01-0.06c-0.02-0.1-0.05-0.19-0.09-0.27l5.61-16.84
			c0.07-0.01,0.14-0.02,0.21-0.05l12.15-4.05l3.51,0.33c0.1,0.01,0.19,0.01,0.29-0.01l3.69,0.39l2.81,0.27l0.27,0.86l-1.39-0.31
			c-0.2-0.1-0.42-0.14-0.63-0.11c-0.16,0-0.31,0.03-0.45,0.09l-3.12,0.63c-0.1-0.01-0.22,0-0.32,0.02l-3.87,0.82l-3.5,0.7
			c-0.15,0.03-0.3,0.1-0.42,0.19c-0.28,0.16-0.49,0.44-0.56,0.77l-2.09,10.16c-0.13,0.61,0.32,1.23,0.92,1.38l1.89,0.39
			c3.43,0.7,6.78-1.52,7.49-4.96l0.05-0.26l4.41-0.46c0.21,0.25,0.44,0.49,0.67,0.73c0.05,0.05,0.1,0.09,0.14,0.14
			c0.19,0.18,0.38,0.36,0.58,0.53c0.08,0.06,0.16,0.13,0.23,0.19c0.18,0.15,0.37,0.29,0.56,0.43c0.09,0.06,0.18,0.12,0.27,0.19
			c0.11,0.08,0.22,0.16,0.33,0.23c0.03,0.02,0.06,0.04,0.09,0.06c0.01,0,0.07,0.04,0.08,0.05c0.13,0.08,0.26,0.16,0.36,0.21
			c0.01,0,0.08,0.04,0.09,0.05c0.15,0.09,0.31,0.17,0.43,0.23l0.08,0.04c0.02,0.01,0.05,0.03,0.07,0.04l0.12,0.06
			c0.09,0.05,0.19,0.09,0.26,0.13c0.01,0,0.17,0.07,0.17,0.08c0.13,0.06,0.25,0.11,0.37,0.16c0.01,0,0.09,0.04,0.1,0.04l0.11,0.04
			c0.01,0,0.02,0.01,0.03,0.01l0.31,0.12c0.07,0.03,0.14,0.05,0.21,0.07l0.09,0.03c0.1,0.04,0.21,0.07,0.3,0.1l0.1,0.03
			c0.02,0.01,0.04,0.01,0.06,0.02l0.12,0.04c0.01,0,0.08,0.02,0.09,0.03l0.13,0.04c0.02,0.01,0.09,0.03,0.11,0.03
			c0.2,0.05,0.39,0.1,0.58,0.14c0,0,0,0,0,0c0,0,0.01,0,0.01,0c0.01,0,0.02,0,0.03,0.01c0.2,0.05,0.4,0.09,0.62,0.12
			c0.01,0,0.09,0.02,0.1,0.02c0.13,0.02,0.24,0.04,0.35,0.05c0.03,0,0.06,0.01,0.09,0.01c0.01,0,0.02,0,0.03,0
			c0.03,0.01,0.07,0.01,0.1,0.02c0.19,0.02,0.39,0.04,0.58,0.06c0.03,0,0.04,0.01,0.08,0.01c0.1,0.01,0.2,0.01,0.31,0.02l8.78,4.4
			c0.13,0.06,0.26,0.15,0.38,0.26c0.15,0.13,0.33,0.22,0.52,0.26c0.17,0.04,0.32,0.09,0.44,0.15l4.73,2.37
			c0.43,0.22,0.76,0.59,0.91,1.05C121.11,97.93,121.08,98.42,120.86,98.85z M120.53,94.05l-4.18-2.09c-0.22-0.11-0.45-0.2-0.7-0.27
			c-0.21-0.16-0.42-0.29-0.64-0.4l-9-4.51c-0.08-0.04-0.16-0.07-0.24-0.09c-0.01,0-0.02,0-0.03,0c-0.07-0.02-0.14-0.03-0.21-0.03
			c-0.71-0.03-1.42-0.12-2.12-0.27c0,0-0.01,0-0.01,0c-0.01,0-0.01,0-0.02,0c-0.32-0.07-0.63-0.15-0.93-0.25l-0.04-0.01
			c-0.3-0.09-0.59-0.2-0.88-0.31l-0.05-0.02c-0.3-0.12-0.59-0.25-0.88-0.4c0,0-0.01-0.01-0.02-0.01c-0.28-0.14-0.56-0.3-0.82-0.46
			c-0.01,0-0.02-0.01-0.02-0.01c-0.03-0.02-0.06-0.04-0.09-0.06c-0.24-0.15-0.48-0.31-0.7-0.48c-0.09-0.07-0.17-0.14-0.25-0.21
			c-0.16-0.13-0.31-0.25-0.46-0.39c-0.13-0.12-0.25-0.25-0.38-0.38c-0.08-0.09-0.17-0.17-0.25-0.26c-0.17-0.19-0.32-0.38-0.47-0.58
			c-0.05-0.06-0.1-0.12-0.15-0.19c-0.31-0.43-0.87-0.61-1.36-0.42c-0.09,0.04-0.18,0.08-0.26,0.14l-5.25,0.55
			c-0.51,0.05-0.93,0.44-1.02,0.94l-0.21,1.1c-0.44,2.17-2.57,3.58-4.74,3.13l-0.76-0.16l1.71-8.32l6.37-1.32
			c0.1,0.01,0.2,0,0.3-0.02l3.46-0.7l3.46,0.77c0,0,0.01,0,0.01,0l9.8,2.17c0.2,0.04,0.42,0.03,0.62-0.03l8.6-2.86l5.29,15.89
			L120.53,94.05z"/>
		<path fill="#9AC456" d="M130.06,94.1c1.41,0,2.57-1.15,2.57-2.57c0-1.41-1.15-2.57-2.57-2.57c-1.42,0-2.57,1.15-2.57,2.57
			C127.49,92.95,128.65,94.1,130.06,94.1z M130.06,91.29c0.13,0,0.24,0.11,0.24,0.24c0,0.13-0.11,0.24-0.24,0.24
			c-0.13,0-0.24-0.11-0.24-0.24C129.82,91.4,129.93,91.29,130.06,91.29z"/>
		<path fill="#9AC456" d="M62.27,88.97c-1.41,0-2.57,1.15-2.57,2.57c0,1.42,1.15,2.57,2.57,2.57c1.42,0,2.57-1.15,2.57-2.57
			C64.84,90.12,63.68,88.97,62.27,88.97z M62.27,91.77c-0.13,0-0.24-0.11-0.24-0.24c0-0.13,0.11-0.24,0.24-0.24
			c0.13,0,0.24,0.11,0.24,0.24C62.51,91.66,62.4,91.77,62.27,91.77z"/>
	</g>
</g>
</svg>
