<?xml version="1.0" encoding="utf-8"?>
<!-- Generator: Adobe Illustrator 24.1.0, SVG Export Plug-In . SVG Version: 6.00 Build 0)  -->
<svg version="1.1" id="Warstwa_1" xmlns="http://www.w3.org/2000/svg" xmlns:xlink="http://www.w3.org/1999/xlink" x="0px" y="0px"
	 viewBox="0 0 194.47 194.47" enable-background="new 0 0 194.47 194.47" xml:space="preserve">
<g>
	<circle opacity="0.37" fill="#2772B8" cx="96.49" cy="152.87" r="11.91"/>
	<g>
		<path fill="#2772B8" d="M95.78,153.39c-34.1,0-61.85-27.74-61.85-61.85s27.74-61.85,61.85-61.85s61.85,27.74,61.85,61.85
			S129.88,153.39,95.78,153.39z M95.78,31.69c-33,0-59.85,26.85-59.85,59.85s26.85,59.85,59.85,59.85c33,0,59.85-26.85,59.85-59.85
			S128.78,31.69,95.78,31.69z"/>
	</g>
	<circle fill="#2772B8" cx="96.49" cy="152.87" r="6.28"/>
	<g>
		<path fill="#2772B8" d="M106.03,83.64c-6.44,0-12.15,3.19-15.65,8.07c-1.28-3.5-2.69-7.47-3.36-9.85v-5.35
			c0.19-0.53,0.4-1.06,0.6-1.57c0.73-1.87,1.41-3.63,1.41-5.35c0-2.22-0.84-4.32-2.38-5.89c-1.54-1.59-3.59-2.46-5.78-2.46
			c-2.18,0-4.24,0.87-5.78,2.46c-1.53,1.58-2.38,3.67-2.38,5.89c0,1.71,0.61,3.31,1.26,5c0.26,0.67,0.52,1.35,0.75,2.08v5.25
			c-0.61,2.15-1.46,4.42-2.36,6.81c-2.26,6-4.83,12.8-4.83,21.09c0,4.89,3.31,12,8.51,12h9.65c0.84,0,4.74-0.28,6.98-5.02
			c3.47,3.33,8.16,5.39,13.34,5.39c10.62,0,19.27-8.64,19.27-19.27S116.66,83.64,106.03,83.64z M77.24,81.36v-2.02h7.29v2.02H77.24z
			 M76.9,65.43c2.14-2.19,5.84-2.19,7.97,0c1.08,1.11,1.67,2.58,1.67,4.15c0,1.25-0.6,2.8-1.24,4.45c-0.24,0.61-0.48,1.22-0.7,1.85
			c-0.05,0.13-0.07,0.27-0.07,0.42v0.54h-7.29v-0.38c0-0.13-0.02-0.25-0.06-0.37c-0.26-0.84-0.57-1.63-0.86-2.4
			c-0.59-1.53-1.09-2.86-1.09-4.1C75.23,68.02,75.82,66.54,76.9,65.43z M85.71,119.31h-9.65c-3.18,0-6.01-5.31-6.01-9.5
			c0-7.84,2.48-14.41,4.66-20.21c0.75-1.99,1.43-3.89,2.02-5.74h8.28c0.93,2.98,2.48,7.25,3.72,10.61
			c-1.25,2.55-1.98,5.41-1.98,8.44c0,4.45,1.53,8.55,4.08,11.81C89.29,119.07,86.31,119.31,85.71,119.31z M106.03,119.68
			c-9.25,0-16.77-7.52-16.77-16.77s7.52-16.77,16.77-16.77c9.25,0,16.77,7.52,16.77,16.77S115.28,119.68,106.03,119.68z"/>
		<path fill="#2772B8" d="M112.75,91.65c-1.37,0-2.48,1.11-2.48,2.48c0,1.37,1.11,2.48,2.48,2.48c1.37,0,2.48-1.11,2.48-2.48
			C115.23,92.76,114.12,91.65,112.75,91.65z M112.75,94.14V92.9l0.02,1.23C112.77,94.14,112.76,94.14,112.75,94.14z"/>
		<path fill="#2772B8" d="M105.17,92.03c-1.37,0-2.48,1.11-2.48,2.48c0,1.37,1.11,2.48,2.48,2.48c1.37,0,2.48-1.11,2.48-2.48
			C107.65,93.14,106.53,92.03,105.17,92.03z M105.17,94.52v-1.25l0.02,1.23C105.18,94.52,105.18,94.52,105.17,94.52z"/>
		<path fill="#2772B8" d="M109.56,98.3c-1.37,0-2.48,1.11-2.48,2.48c0,1.37,1.11,2.48,2.48,2.48c1.37,0,2.48-1.11,2.48-2.48
			C112.04,99.41,110.93,98.3,109.56,98.3z M109.56,100.8v-1.25l0.02,1.23C109.58,100.79,109.57,100.8,109.56,100.8z"/>
	</g>
</g>
</svg>
