<?xml version="1.0" encoding="utf-8"?>
<!-- Generator: Adobe Illustrator 24.1.0, SVG Export Plug-In . SVG Version: 6.00 Build 0)  -->
<svg version="1.1" id="Warstwa_1" xmlns="http://www.w3.org/2000/svg" xmlns:xlink="http://www.w3.org/1999/xlink" x="0px" y="0px"
	 viewBox="0 0 194.47 194.47" enable-background="new 0 0 194.47 194.47" xml:space="preserve">
<g>
	<circle opacity="0.37" fill="#2772B9" cx="96.52" cy="153.28" r="11.91"/>
	<g>
		<path fill="#2772B9" d="M95.81,153.8c-34.1,0-61.85-27.74-61.85-61.85S61.7,30.1,95.81,30.1s61.85,27.74,61.85,61.85
			S129.91,153.8,95.81,153.8z M95.81,32.1c-33,0-59.85,26.85-59.85,59.85s26.85,59.85,59.85,59.85c33,0,59.85-26.85,59.85-59.85
			S128.8,32.1,95.81,32.1z"/>
	</g>
	<circle fill="#2772B9" cx="96.52" cy="153.28" r="6.28"/>
	<g>
		<path fill="#2772B9" d="M77.21,80.62l4.62,2.18v7.32c0,0.4,0.22,0.76,0.58,0.93l12.53,6.27c0.15,0.07,0.31,0.11,0.47,0.11
			c0.16,0,0.32-0.04,0.47-0.11l12.53-6.27c0.35-0.18,0.58-0.54,0.58-0.93v-7.32l3.13-1.47v7.44l-1.91,2.87
			c-0.32,0.48-0.19,1.13,0.29,1.45c0.18,0.12,0.38,0.18,0.58,0.18c0.34,0,0.67-0.16,0.87-0.46l1.22-1.83l1.22,1.83
			c0.2,0.3,0.53,0.46,0.87,0.46c0.2,0,0.4-0.06,0.58-0.18c0.48-0.32,0.61-0.97,0.29-1.45l-1.91-2.87v-9.08
			c0-0.13-0.03-0.25-0.07-0.36c-0.01-0.03-0.03-0.06-0.04-0.09c-0.04-0.08-0.09-0.16-0.16-0.23c-0.02-0.02-0.03-0.04-0.05-0.06
			c-0.08-0.08-0.17-0.14-0.27-0.19l-17.75-8.36c-0.28-0.13-0.61-0.13-0.89,0l-17.75,8.36c-0.37,0.17-0.6,0.54-0.6,0.95
			S76.84,80.44,77.21,80.62z M106.9,89.47l-11.49,5.74l-11.49-5.74v-5.7l10.44,4.91v2.47c0,0.58,0.47,1.04,1.04,1.04
			c0.58,0,1.04-0.47,1.04-1.04v-2.47l10.44-4.91V89.47z M95.41,72.47l13.08,6.16H96.45v-1.04c0-0.58-0.47-1.04-1.04-1.04
			c-0.58,0-1.04,0.47-1.04,1.04v4.18c0,0.58,0.47,1.04,1.04,1.04c0.58,0,1.04-0.47,1.04-1.04v-1.04h12.04l-0.99,0.47c0,0,0,0,0,0
			l-12.09,5.69l-15.3-7.2L95.41,72.47z"/>
		<polygon fill="#2772B9" points="95.41,97.43 95.41,97.43 95.41,97.43 		"/>
		<path fill="#2772B9" d="M122.56,61.92H68.25c-2.3,0-4.18,1.87-4.18,4.18v34.46v5.22c0,2.3,1.87,4.18,4.18,4.18h20.85
			c-0.24,4.16-1.98,6.27-5.19,6.27h-2.09c-1.73,0-3.13,1.41-3.13,3.13s1.41,3.13,3.13,3.13h27.15c1.73,0,3.13-1.41,3.13-3.13
			s-1.41-3.13-3.13-3.13h-2.09c-3.21,0-4.95-2.11-5.19-6.27h20.85c2.3,0,4.18-1.87,4.18-4.18v-5.22V66.09
			C126.74,63.79,124.86,61.92,122.56,61.92z M66.16,66.09c0-1.15,0.94-2.09,2.09-2.09h54.31c1.15,0,2.09,0.94,2.09,2.09v33.42h-2.09
			V67.14c0-0.58-0.47-1.04-1.04-1.04H69.3c-0.58,0-1.04,0.47-1.04,1.04v32.38h-2.09V66.09z M120.47,99.51H70.34V68.18h50.13V99.51z
			 M110.03,119.36c0,0.58-0.47,1.04-1.04,1.04H81.83c-0.58,0-1.04-0.47-1.04-1.04s0.47-1.04,1.04-1.04h2.09h22.98h2.09
			C109.56,118.31,110.03,118.78,110.03,119.36z M101.81,116.22h-12.8c1.29-1.42,2.04-3.55,2.2-6.27h8.41
			C99.77,112.68,100.52,114.8,101.81,116.22z M124.65,105.78c0,1.15-0.94,2.09-2.09,2.09h-21.93H90.19H68.25
			c-1.15,0-2.09-0.94-2.09-2.09v-4.18h3.13h52.22h3.13V105.78z"/>
	</g>
</g>
</svg>
