<?xml version="1.0" encoding="utf-8"?>
<!-- Generator: Adobe Illustrator 24.1.0, SVG Export Plug-In . SVG Version: 6.00 Build 0)  -->
<svg version="1.1" id="Warstwa_1" xmlns="http://www.w3.org/2000/svg" xmlns:xlink="http://www.w3.org/1999/xlink" x="0px" y="0px"
	 viewBox="0 0 194.47 194.47" enable-background="new 0 0 194.47 194.47" xml:space="preserve">
<g>
	<circle opacity="0.37" fill="#2772B8" cx="96.46" cy="152.87" r="11.91"/>
	<g>
		<path fill="#2772B8" d="M95.74,153.39c-34.1,0-61.85-27.74-61.85-61.85s27.74-61.85,61.85-61.85s61.85,27.74,61.85,61.85
			S129.85,153.39,95.74,153.39z M95.74,31.69c-33,0-59.85,26.85-59.85,59.85s26.85,59.85,59.85,59.85c33,0,59.85-26.85,59.85-59.85
			S128.74,31.69,95.74,31.69z"/>
	</g>
	<circle fill="#2772B8" cx="96.46" cy="152.87" r="6.28"/>
	<g>
		<path fill="#2772B8" d="M107.42,121.15C107.42,121.15,107.42,121.15,107.42,121.15h-4.57c0,0,0,0,0,0H89.36c0,0,0,0,0,0H72.58
			c0,0,0,0,0,0H67.8c-0.15,0-0.3-0.03-0.43-0.08c0,0,0,0,0,0c0,0,0,0,0,0c0,0,0,0,0,0c0,0,0,0,0,0c0,0,0,0,0,0l0,0
			c-0.15-0.06-0.28-0.15-0.39-0.26c0,0,0,0,0,0c0,0,0,0,0,0c0,0,0,0,0,0c0,0,0,0,0,0c0,0,0,0,0,0c0,0,0,0,0,0c0,0,0,0,0,0
			c0,0,0,0,0,0c0,0,0,0,0,0c0,0,0,0,0,0c0,0,0,0,0,0c0,0,0,0,0,0c0,0,0,0,0,0l0,0c-0.11-0.11-0.2-0.25-0.26-0.4c0,0,0,0,0,0
			c0,0,0,0,0,0c0,0,0,0,0,0c0,0,0,0,0,0c0,0,0,0,0,0c0,0,0,0,0,0c-0.05-0.14-0.08-0.28-0.08-0.43c0.07-4.47,0.2-8.91,0.69-11.15
			c0.14-0.8,0.67-1.49,1.57-2.07c2.33-1.49,6.79-1.88,8.61-1.99c3.64-0.21,7.31,0.09,9.8,0.78c0.18,0.05,0.34,0.14,0.48,0.26
			c3.55-1.14,8.74-1.19,11.26-1.03c2.54,0.16,4.41,0.51,5.76,0.97c0.12-0.09,0.26-0.16,0.41-0.21c2.5-0.69,6.16-0.98,9.8-0.78
			c1.81,0.1,6.28,0.5,8.61,1.99c0.9,0.57,1.42,1.27,1.57,2.07c0.49,2.24,0.62,6.68,0.69,11.15c0,0.15-0.02,0.3-0.08,0.43
			c0,0,0,0,0,0c0,0,0,0,0,0c0,0,0,0,0,0c0,0,0,0,0,0c0,0,0,0,0,0c0,0,0,0,0,0c-0.06,0.15-0.15,0.29-0.26,0.4l0,0c0,0,0,0,0,0
			c0,0,0,0,0,0c0,0,0,0,0,0c0,0,0,0,0,0c0,0,0,0,0,0c0,0,0,0,0,0c0,0,0,0,0,0c0,0,0,0,0,0c0,0,0,0,0,0c0,0,0,0,0,0c0,0,0,0,0,0
			c0,0,0,0,0,0c0,0,0,0,0,0c-0.11,0.11-0.24,0.2-0.39,0.26l0,0c0,0,0,0,0,0c0,0,0,0,0,0c0,0,0,0,0,0c0,0,0,0,0,0c0,0,0,0,0,0
			c-0.13,0.05-0.28,0.08-0.43,0.08h-4.77c0,0,0,0,0,0H107.42C107.43,121.15,107.42,121.15,107.42,121.15z M121.09,118.79h2.4
			c-0.05-2.94-0.18-7.5-0.62-9.5c0-0.02-0.01-0.04-0.01-0.06c-0.01-0.05-0.12-0.24-0.51-0.5c-2.45-1.56-9.81-2.13-14.79-1.3
			c0.43,0.53,0.59,1.08,0.61,1.59l0.39,9.76h10.17l-0.04-5.07c-0.01-0.65,0.52-1.19,1.17-1.19c0,0,0.01,0,0.01,0
			c0.65,0,1.18,0.52,1.18,1.17L121.09,118.79z M104.02,118.79h2.17l-0.39-9.66c-0.02-0.55-2.08-1.7-6.92-2
			c-2.95-0.18-6.18,0-8.66,0.49c-3.04,0.61-3.77,1.42-3.8,1.61c0,0.02-0.01,0.04-0.01,0.06c-0.44,2-0.57,6.56-0.62,9.5h2.4
			l0.04-5.09c0.01-0.65,0.53-1.17,1.18-1.17c0,0,0.01,0,0.01,0c0.65,0.01,1.18,0.54,1.17,1.19l-0.04,5.07h11.1l-0.04-5.07
			c-0.01-0.65,0.52-1.19,1.17-1.19c0,0,0.01,0,0.01,0c0.65,0,1.18,0.52,1.18,1.17L104.02,118.79z M73.77,118.79h9.65
			c0.08-4.06,0.23-7.94,0.67-9.98c0.09-0.52,0.35-0.98,0.73-1.39c-4.98-0.81-12.25-0.24-14.68,1.31c-0.4,0.25-0.51,0.44-0.51,0.5
			c0,0.02-0.01,0.04-0.01,0.06c-0.44,2-0.57,6.56-0.62,9.5h2.4l0.04-5.09c0.01-0.65,0.53-1.17,1.18-1.17c0,0,0.01,0,0.01,0
			c0.65,0.01,1.18,0.54,1.17,1.19L73.77,118.79z M113.24,103.33c-1.14,0-2.25-0.33-3.23-0.95c-1.94-1.21-3.15-3.46-3.15-5.87
			c0-3.74,2.83-6.78,6.3-6.78c1.14,0,2.25,0.33,3.23,0.95c1.94,1.21,3.15,3.46,3.15,5.87C119.55,100.29,116.72,103.33,113.24,103.33
			z M113.17,92.09c-2.17,0-3.94,1.98-3.94,4.42c0,1.61,0.78,3.09,2.04,3.87c0.01,0,0.01,0.01,0.02,0.01
			c0.59,0.38,1.27,0.58,1.96,0.58c2.17,0,3.94-1.98,3.94-4.42c0-1.61-0.78-3.09-2.04-3.87c-0.01,0-0.01-0.01-0.02-0.01
			C114.54,92.29,113.86,92.09,113.17,92.09z M95.87,103.33c-3.48,0-6.3-3.04-6.3-6.78c0-2.41,1.21-4.66,3.15-5.87
			c0.97-0.62,2.09-0.95,3.23-0.95c3.48,0,6.3,3.04,6.3,6.78c0,2.41-1.21,4.66-3.15,5.87C98.13,103,97.01,103.33,95.87,103.33z
			 M95.95,92.09c-0.69,0-1.36,0.2-1.96,0.58c-0.01,0-0.01,0.01-0.02,0.01c-1.26,0.78-2.04,2.26-2.04,3.87
			c0,2.44,1.77,4.42,3.94,4.42c0.69,0,1.36-0.2,1.96-0.58c0.01,0,0.01-0.01,0.02-0.01c1.26-0.78,2.04-2.26,2.04-3.87
			C99.89,94.07,98.12,92.09,95.95,92.09z M93.35,91.68L93.35,91.68L93.35,91.68z M79.25,103.33c-3.48,0-6.3-3.04-6.3-6.78
			c0-2.41,1.21-4.66,3.15-5.87c0.97-0.62,2.09-0.95,3.23-0.95c3.48,0,6.3,3.04,6.3,6.78c0,2.41-1.21,4.66-3.15,5.87
			C81.51,103,80.39,103.33,79.25,103.33z M79.32,92.09c-0.69,0-1.36,0.2-1.96,0.58c-0.01,0-0.01,0.01-0.02,0.01
			c-1.26,0.78-2.04,2.26-2.04,3.87c0,2.44,1.77,4.42,3.94,4.42c0.69,0,1.36-0.2,1.96-0.58c0.01,0,0.01-0.01,0.02-0.01
			c1.26-0.78,2.04-2.26,2.04-3.87C83.26,94.07,81.5,92.09,79.32,92.09z M76.73,91.68L76.73,91.68L76.73,91.68z M78.97,87.59
			c-0.15,0-0.3-0.03-0.44-0.09c-0.44-0.18-0.74-0.61-0.74-1.09l-0.03-5.02h-7.37c-2.21,0-4-1.79-4-4V65.93c0-2.21,1.79-4,4-4h51.37
			c2.2,0,4,1.79,4,4V77.4c0,2.21-1.79,4-4,4h-7.37l-0.03,5.02c0,0.48-0.29,0.91-0.74,1.09c-0.44,0.18-0.95,0.07-1.29-0.27l-5.7-5.84
			h-6.79l-2.72,5.53c-0.2,0.4-0.61,0.66-1.06,0.66c-0.45,0-0.86-0.26-1.06-0.66L92.3,81.4h-6.79l-5.7,5.84
			C79.58,87.47,79.28,87.59,78.97,87.59z M85.01,79.04h8.02c0.45,0,0.86,0.26,1.06,0.66l1.98,4.03l1.98-4.03
			c0.2-0.4,0.61-0.66,1.06-0.66h8.02c0.32,0,0.62,0.13,0.85,0.36l4.03,4.13l0.02-3.32c0-0.65,0.53-1.17,1.18-1.17h8.54
			c0.9,0,1.64-0.73,1.64-1.64V65.93c0-0.9-0.73-1.64-1.64-1.64H70.39c-0.9,0-1.64,0.73-1.64,1.64V77.4c0,0.9,0.73,1.64,1.64,1.64
			h8.54c0.65,0,1.18,0.52,1.18,1.17l0.02,3.32l4.03-4.13C84.39,79.17,84.69,79.04,85.01,79.04z M96.04,74.51c-0.03,0-0.05,0-0.08,0
			c-0.65-0.04-1.15-0.6-1.1-1.25c0.02-0.24,0.04-0.48,0.08-0.71c0.11-0.64,0.72-1.07,1.36-0.96c0.64,0.11,1.07,0.72,0.96,1.36
			c-0.02,0.14-0.04,0.3-0.05,0.45C97.18,74.03,96.66,74.51,96.04,74.51z M91.09,74.51c-0.03,0-0.05,0-0.08,0
			c-0.65-0.04-1.15-0.6-1.1-1.25c0.02-0.24,0.04-0.48,0.08-0.71c0.11-0.64,0.72-1.07,1.36-0.96c0.64,0.11,1.07,0.72,0.96,1.36
			c-0.02,0.14-0.04,0.3-0.05,0.45C92.23,74.03,91.71,74.51,91.09,74.51z M100.99,74.51c-0.02,0-0.05,0-0.07,0
			c-0.65-0.04-1.15-0.6-1.11-1.25c0.01-0.24,0.04-0.48,0.08-0.71c0.11-0.64,0.72-1.08,1.36-0.97c0.64,0.11,1.08,0.72,0.97,1.36
			c-0.02,0.15-0.04,0.3-0.05,0.45C102.13,74.03,101.61,74.51,100.99,74.51z"/>
	</g>
</g>
</svg>
