<?xml version="1.0" encoding="utf-8"?>
<!-- Generator: Adobe Illustrator 24.1.0, SVG Export Plug-In . SVG Version: 6.00 Build 0)  -->
<svg version="1.1" id="Warstwa_1" xmlns="http://www.w3.org/2000/svg" xmlns:xlink="http://www.w3.org/1999/xlink" x="0px" y="0px"
	 viewBox="0 0 194.47 194.47" enable-background="new 0 0 194.47 194.47" xml:space="preserve">
<g>
	<circle opacity="0.37" fill="#164688" cx="96.49" cy="152.6" r="11.91"/>
	<g>
		<path fill="#174689" d="M95.78,153.12c-34.1,0-61.85-27.74-61.85-61.85s27.74-61.85,61.85-61.85s61.85,27.74,61.85,61.85
			S129.88,153.12,95.78,153.12z M95.78,31.42c-33,0-59.85,26.85-59.85,59.85s26.85,59.85,59.85,59.85c33,0,59.85-26.85,59.85-59.85
			S128.78,31.42,95.78,31.42z"/>
	</g>
	<circle fill="#174689" cx="96.49" cy="152.6" r="6.28"/>
	<path fill="#174689" d="M125.08,64.03c-0.22-0.72-0.59-1.35-1.11-1.87c-0.52-0.52-1.15-0.89-1.87-1.11
		c-0.67-0.2-1.39-0.26-2.14-0.17c-0.72,0.08-1.44,0.3-2.13,0.64c-0.7,0.35-1.34,0.81-1.91,1.38L101.5,77.3l-7.64-1.68l3.95-3.95
		c0.48-0.48,0.48-1.25,0-1.73c-0.48-0.48-1.25-0.48-1.73,0L91.03,75l-8.18-1.8l3.54-3.54c0.48-0.48,0.48-1.25,0-1.73
		c-0.48-0.48-1.25-0.48-1.73,0l-4.65,4.65l-6.95-1.53c-1.54-0.34-3.83-0.06-4.86,0.97l-2.4,2.4c-0.55,0.55-0.77,1.22-0.64,1.91
		c0.31,1.61,2.37,2.61,5.24,3.86c0.41,0.18,0.79,0.34,1.1,0.49l1.1,0.52c5.64,2.66,11,5.18,16.42,7.97c-1.65,1.7-3.22,3.4-4.74,5.05
		c-1.74,1.89-3.54,3.84-5.44,5.77l-4.78-0.49c-0.11-0.01-0.26,0-0.37,0.02c-0.06,0.01-0.16,0.02-0.27,0.03
		c-1.08,0.11-2.31,0.3-3.07,1.06l-0.94,0.94c-0.81,0.81-1.53,1.72-1.32,2.8c0.22,1.11,1.3,1.68,2.22,2.05l6.68,2.74l2.74,6.68
		c0.38,0.91,0.95,1.99,2.05,2.21c1.09,0.22,1.99-0.5,2.81-1.32l0.94-0.94c0.85-0.85,1.27-2.24,1.11-3.72l-0.49-4.78
		c0.66-0.67,1.32-1.33,1.97-1.99c2.9-2.94,5.66-5.74,8.77-8.33c2.81,5.46,5.35,10.85,8.02,16.53l0.52,1.11
		c0.15,0.31,0.31,0.69,0.49,1.1c1.24,2.88,2.25,4.94,3.86,5.24c0.13,0.02,0.25,0.04,0.38,0.04c0.55,0,1.09-0.23,1.53-0.68l2.4-2.4
		c1.05-1.05,1.41-2.87,0.97-4.86l-1.53-6.95l5.8-5.8c0.48-0.48,0.48-1.25,0-1.73c-0.48-0.48-1.25-0.48-1.73,0l-4.7,4.7l-1.8-8.18
		l4.63-4.63c0.48-0.48,0.48-1.25,0-1.73c-0.48-0.48-1.25-0.48-1.73,0l-3.53,3.53l-1.68-7.62l14.42-14.42
		c0.57-0.57,1.03-1.21,1.38-1.91c0.34-0.69,0.56-1.4,0.64-2.12C125.34,65.42,125.28,64.7,125.08,64.03z M122.82,65.89
		c-0.05,0.43-0.19,0.89-0.4,1.32c-0.23,0.46-0.54,0.89-0.92,1.27l-14.9,14.9c-0.29,0.29-0.42,0.72-0.33,1.13l2.3,10.45l2.42,11.01
		l1.68,7.61c0.25,1.13,0.12,2.17-0.31,2.61l-2.25,2.25c-0.62-0.62-1.54-2.73-1.95-3.69c-0.19-0.44-0.36-0.84-0.52-1.17l-0.52-1.11
		c-2.9-6.16-5.64-11.98-8.76-17.95c-0.17-0.32-0.47-0.55-0.83-0.63c-0.35-0.07-0.73,0.01-1.01,0.24c-3.71,2.93-6.84,6.11-10.15,9.46
		c-0.78,0.79-1.57,1.59-2.37,2.39c-0.26,0.26-0.39,0.62-0.35,0.99l0.54,5.36c0.07,0.72-0.09,1.42-0.41,1.74l-0.94,0.94
		c-0.27,0.27-0.45,0.42-0.58,0.52c-0.07-0.12-0.17-0.32-0.3-0.62l-2.94-7.16c-0.12-0.3-0.36-0.54-0.67-0.67l-7.15-2.94
		c-0.3-0.12-0.49-0.22-0.62-0.3c0.09-0.12,0.25-0.31,0.52-0.58l0.94-0.94c0.17-0.15,0.7-0.27,1.6-0.36c0.11-0.01,0.21-0.02,0.3-0.03
		l5.21,0.53c0.37,0.04,0.73-0.09,0.99-0.35c2.09-2.09,4.04-4.2,5.92-6.25c1.87-2.02,3.79-4.12,5.84-6.17
		c0.28-0.28,0.4-0.66,0.34-1.05s-0.3-0.72-0.64-0.9c-5.98-3.12-11.81-5.87-17.98-8.77l-1.1-0.52c-0.33-0.16-0.74-0.33-1.18-0.52
		c-0.95-0.41-3.07-1.33-3.69-1.95l2.24-2.24c0.26-0.24,1.61-0.53,2.61-0.31l7.61,1.68l11.01,2.42l10.48,2.31
		c0.41,0.09,0.83-0.03,1.13-0.33l14.89-14.89c0.38-0.38,0.81-0.69,1.27-0.92c0.44-0.22,0.88-0.35,1.32-0.4
		c0.41-0.05,0.8-0.02,1.15,0.09c0.33,0.1,0.62,0.27,0.85,0.5c0.23,0.23,0.4,0.52,0.5,0.85C122.84,65.09,122.87,65.48,122.82,65.89z"
		/>
</g>
</svg>
