<?xml version="1.0" encoding="utf-8"?>
<!-- Generator: Adobe Illustrator 24.1.0, SVG Export Plug-In . SVG Version: 6.00 Build 0)  -->
<svg version="1.1" id="Warstwa_1" xmlns="http://www.w3.org/2000/svg" xmlns:xlink="http://www.w3.org/1999/xlink" x="0px" y="0px"
	 viewBox="0 0 194.47 194.47" enable-background="new 0 0 194.47 194.47" xml:space="preserve">
<g>
	<circle opacity="0.37" fill="#164688" cx="96.49" cy="152.55" r="11.91"/>
	<g>
		<path fill="#174689" d="M95.78,153.07c-34.1,0-61.85-27.74-61.85-61.85s27.74-61.85,61.85-61.85s61.85,27.74,61.85,61.85
			S129.88,153.07,95.78,153.07z M95.78,31.37c-33,0-59.85,26.85-59.85,59.85s26.85,59.85,59.85,59.85c33,0,59.85-26.85,59.85-59.85
			S128.78,31.37,95.78,31.37z"/>
	</g>
	<circle fill="#174689" cx="96.49" cy="152.55" r="6.28"/>
	<g>
		<path fill="#174689" d="M76.53,82.39c3.32,0,5.83-2.7,5.83-6.29v-1.67c0-3.59-2.51-6.29-5.83-6.29s-5.83,2.7-5.83,6.29v1.67
			C70.7,79.68,73.21,82.39,76.53,82.39z M73.3,74.43c0-1.78,1.01-3.7,3.24-3.7c2.23,0,3.24,1.92,3.24,3.7v1.67
			c0,1.78-1.01,3.7-3.24,3.7c-2.23,0-3.24-1.92-3.24-3.7V74.43z"/>
		<path fill="#174689" d="M127.7,95.39h-2.21V85.17c0-5.43-9.44-7.77-14.25-7.77S97,79.74,97,85.17v10.22h-7.9
			c0.91-1.76,0.74-3.77,0.71-4.03l-0.13-1.15h-8.39l-6.48-6.48h-4.42c-2.77,0-4.85,2.2-4.85,5.13v14.25c0,4.39,3.27,7.83,7.44,7.83
			h6.84l3.59,10.75l2.46-0.82l-4.18-12.52h-8.71c-2.72,0-4.85-2.3-4.85-5.23V88.86c0-1.22,0.71-2.54,2.26-2.54h3.35l6.48,6.48h7
			c-0.08,0.65-0.28,1.41-0.74,1.91c-0.41,0.46-1.01,0.68-1.84,0.68h-4.85h-2.38l-4.8-4.81l-1.83,1.83l3.84,3.85v6.91h6.56
			c1.96,0,3.15,0.57,3.53,1.66l5.35,16.85l2.47-0.78l-5.36-16.89c-0.77-2.21-2.9-3.43-5.99-3.43h-3.97v-2.59h2.59h4.85h37.89v23.32
			h2.59V97.98h2.59V95.39z M99.59,85.17c0-2.96,7.07-5.18,11.66-5.18s11.66,2.23,11.66,5.18v10.22h-2.59v-7.63h-2.59v7.63h-12.95
			v-7.63h-2.59v7.63h-2.59V85.17z"/>
		<path fill="#174689" d="M111.24,76.1c3.75,0,6.48-2.72,6.48-6.48v-2.59c0-3.75-2.72-6.48-6.48-6.48s-6.48,2.72-6.48,6.48v2.59
			C104.77,73.38,107.49,76.1,111.24,76.1z M107.36,67.03c0-2.32,1.56-3.89,3.89-3.89s3.89,1.56,3.89,3.89v2.59
			c0,2.32-1.56,3.89-3.89,3.89s-3.89-1.56-3.89-3.89V67.03z"/>
	</g>
</g>
</svg>
