<?xml version="1.0" encoding="utf-8"?>
<!-- Generator: Adobe Illustrator 24.1.0, SVG Export Plug-In . SVG Version: 6.00 Build 0)  -->
<svg version="1.1" id="Warstwa_1" xmlns="http://www.w3.org/2000/svg" xmlns:xlink="http://www.w3.org/1999/xlink" x="0px" y="0px"
	 viewBox="0 0 194.47 194.47" enable-background="new 0 0 194.47 194.47" xml:space="preserve">
<g>
	<g>
		<path fill="#7DB2E1" d="M95.78,153.39c-34.1,0-61.85-27.74-61.85-61.85s27.74-61.85,61.85-61.85s61.85,27.74,61.85,61.85
			S129.88,153.39,95.78,153.39z M95.78,31.69c-33,0-59.85,26.85-59.85,59.85s26.85,59.85,59.85,59.85c33,0,59.85-26.85,59.85-59.85
			S128.78,31.69,95.78,31.69z"/>
	</g>
	<circle fill="#7DB2E1" cx="96.49" cy="152.87" r="6.28"/>
	<circle opacity="0.37" fill="#7DB2E1" cx="96.49" cy="152.87" r="11.91"/>
	<g>
		<path fill="#7DB2E1" d="M118.66,121.69H73.55c-1.9,0-3.45-1.55-3.45-3.45V64.57c0-1.9,1.55-3.45,3.45-3.45h33.31
			c0.03,0,0.05,0,0.08,0c0.3,0.01,0.57,0.13,0.78,0.31l0,0c0,0,0,0,0,0c0,0,0,0,0,0c0,0,0,0,0,0c0.03,0.02,0.05,0.04,0.07,0.07
			l13.93,13.93c0.26,0.26,0.4,0.62,0.38,0.98v41.83C122.11,120.11,120.53,121.69,118.66,121.69z M73.55,63.75
			c-0.46,0-0.83,0.37-0.83,0.83v53.67c0,0.44,0.39,0.83,0.83,0.83h45.12c0.43,0,0.83-0.4,0.83-0.83V77.67h-10.48
			c-1.9,0-3.45-1.55-3.45-3.45V63.75H73.55z M108.18,65.6v8.63c0,0.46,0.37,0.83,0.83,0.83h8.63L108.18,65.6z M102.63,110.68
			c-0.38,0-0.76-0.17-1.02-0.48l-4.04-4.98l-1.26,1.59c-0.44,0.55-1.24,0.66-1.81,0.23L82.2,97.8c-3.84-2.69-5.64-7.25-4.56-11.6
			c0.92-3.71,3.69-6.28,7.22-6.71c2.53-0.31,5.35,1.09,7.29,2.93c1.4-2.25,3.78-4.29,6.32-4.6c3.5-0.43,6.82,1.33,8.64,4.59
			c1.2,2.14,1.83,5.18,0.87,8.36c0.51-0.1,1.01-0.12,1.5-0.06c2.58,0.32,4.62,2.15,5.35,4.8c0.86,3.14-0.34,6.41-3.11,8.54
			l-8.29,6.37C103.18,110.59,102.9,110.68,102.63,110.68z M99.38,92.13c-1.57,0-2.71,1.07-3.28,2.15c-0.81,1.52-1.01,3.9,0.85,6.03
			l5.89,7.25l7.28-5.59c2.29-1.76,2.63-4.13,2.18-5.77c-0.44-1.62-1.62-2.7-3.14-2.89c-1.15-0.15-2.97,0.89-3.8,2.16
			c-0.27,0.41-0.75,0.64-1.24,0.58c-0.49-0.06-0.91-0.38-1.08-0.85c-0.53-1.45-2.07-2.9-3.23-3.04l0,0
			C99.66,92.14,99.52,92.13,99.38,92.13z M85.56,82.06c-0.13,0-0.26,0.01-0.39,0.02c-2.42,0.3-4.34,2.12-4.99,4.75
			c-0.65,2.62-0.06,6.31,3.56,8.85l11.31,8.5l0.83-1.04l-0.93-1.15c-2.22-2.55-2.68-6.07-1.16-8.94c1.31-2.47,3.74-3.81,6.34-3.49
			c1.64,0.2,3.2,1.38,4.27,2.78c2.05-3.23,1.62-6.53,0.43-8.65c-1.3-2.32-3.62-3.57-6.04-3.27c-1.9,0.23-4.29,2.47-5.1,4.78
			c-0.16,0.47-0.58,0.8-1.06,0.86c-0.48,0.06-0.97-0.15-1.25-0.56C90.07,83.58,87.45,82.06,85.56,82.06z"/>
	</g>
</g>
</svg>
