<?xml version="1.0" encoding="utf-8"?>
<!-- Generator: Adobe Illustrator 24.1.0, SVG Export Plug-In . SVG Version: 6.00 Build 0)  -->
<svg version="1.1" id="Warstwa_1" xmlns="http://www.w3.org/2000/svg" xmlns:xlink="http://www.w3.org/1999/xlink" x="0px" y="0px"
	 viewBox="0 0 194.47 194.47" enable-background="new 0 0 194.47 194.47" xml:space="preserve">
<g>
	<g>
		<g>
			<path fill="#7DB2E1" d="M96.08,153.39c-34.1,0-61.85-27.74-61.85-61.85s27.74-61.85,61.85-61.85s61.85,27.74,61.85,61.85
				S130.18,153.39,96.08,153.39z M96.08,31.69c-33,0-59.85,26.85-59.85,59.85s26.85,59.85,59.85,59.85c33,0,59.85-26.85,59.85-59.85
				S129.08,31.69,96.08,31.69z"/>
		</g>
		<circle fill="#7DB2E1" cx="96.79" cy="152.87" r="6.28"/>
		<circle opacity="0.37" fill="#7DB2E1" cx="96.79" cy="152.87" r="11.91"/>
	</g>
	<g>
		<path fill="#7DB2E1" d="M109.87,79.37c-0.25-10.85-10.02-19.62-22-19.62c-12.14,0-22.02,8.99-22.02,20.04s9.88,20.04,22.02,20.04
			c0,0,0.01,0,0.01,0c0.42,5,2.96,9.62,7.15,12.93v11.11l8.4-7.08c1.73,0.41,3.52,0.62,5.31,0.62c11.53,0,20.91-8.54,20.91-19.04
			C129.65,88.23,120.88,79.91,109.87,79.37z M87.87,97.44c-10.82,0-19.62-7.92-19.62-17.65c0-9.73,8.8-17.65,19.62-17.65
			s19.62,7.92,19.62,17.65c0,5.27-2.59,10.22-7.11,13.59l-0.48,0.36v7.74l-5.85-4.93l-0.6,0.16C91.63,97.2,89.76,97.44,87.87,97.44z
			 M108.73,115.14c-1.79,0-3.58-0.23-5.3-0.69l-0.57-0.15l-5.56,4.68v-7.35l-0.46-0.34c-3.9-2.91-6.29-7.07-6.69-11.56
			c1.11-0.11,2.21-0.29,3.3-0.55l8.84,7.45v-11.7c4.32-3.41,6.98-8.15,7.49-13.29c9.79,0.5,17.58,7.81,17.58,16.74
			C127.37,107.62,119.01,115.14,108.73,115.14z"/>
		<path fill="#7DB2E1" d="M82.21,73.42c-1.27,0-2.63,0.12-3.26,0.23c-0.29,0.05-0.44,0.18-0.44,0.54V84.3
			c0,0.35,0.15,0.49,0.44,0.54c0.63,0.11,1.99,0.23,3.26,0.23c3.05,0,4.89-1.61,4.89-4.84v-1.98
			C87.09,75.02,85.25,73.42,82.21,73.42z M84.47,80.23c0,2.07-0.89,2.62-2.27,2.62c-0.38,0-0.87-0.02-1.09-0.03v-7.15
			c0.21-0.02,0.7-0.03,1.09-0.03c1.38,0,2.27,0.55,2.27,2.62V80.23z"/>
		<path fill="#7DB2E1" d="M95.9,84.55v-1.42c0-0.17-0.14-0.31-0.31-0.31h-3.11c-0.72,0-0.98-0.25-0.98-1.04v-1.62h3.97
			c0.17,0,0.31-0.14,0.31-0.31v-1.45c0-0.17-0.14-0.31-0.31-0.31H91.5v-1.39c0-0.8,0.26-1.04,0.98-1.04h3.11
			c0.17,0,0.31-0.14,0.31-0.31v-1.42c0-0.2-0.09-0.28-0.31-0.31c-0.54-0.08-1.3-0.2-2.96-0.2c-1.98,0-3.74,0.49-3.74,3.28v5.08
			c0,2.79,1.75,3.29,3.72,3.29c1.65,0,2.43-0.12,2.97-0.2C95.8,84.84,95.9,84.75,95.9,84.55z"/>
		<path fill="#7DB2E1" d="M113.14,92.52c-0.54-0.08-1.3-0.2-2.96-0.2c-1.98,0-3.74,0.49-3.74,3.28v7.92c0,0.17,0.14,0.31,0.31,0.31
			h1.99c0.17,0,0.31-0.14,0.31-0.31v-4.47h3.97c0.17,0,0.31-0.14,0.31-0.31v-1.45c0-0.17-0.14-0.31-0.31-0.31h-3.97v-1.38
			c0-0.8,0.26-1.04,0.98-1.04h3.11c0.17,0,0.31-0.14,0.31-0.31v-1.42C113.45,92.62,113.36,92.55,113.14,92.52z"/>
		<path fill="#7DB2E1" d="M124.14,103.47l-2.31-4.32c1.12-0.44,1.98-1.44,1.98-3.06v-0.2c0-2.71-2.01-3.58-4.61-3.58
			c-1.1,0-2.4,0.09-3.11,0.2c-0.47,0.08-0.69,0.21-0.69,0.74v10.28c0,0.17,0.14,0.31,0.31,0.31h1.99c0.17,0,0.31-0.14,0.31-0.31
			v-3.89c0.29,0,0.77,0.03,1.09,0.03l0.17-0.02l2.05,3.87c0.08,0.15,0.14,0.31,0.31,0.31h2.34c0.17,0,0.23-0.08,0.23-0.18
			C124.18,103.59,124.17,103.53,124.14,103.47z M121.2,96.08c0,1.04-0.51,1.45-2.11,1.45c-0.17,0-0.92-0.02-1.09-0.03v-2.94
			c0.18-0.02,0.98-0.05,1.19-0.05c1.29,0,2.01,0.43,2.01,1.36V96.08z"/>
	</g>
</g>
</svg>
