<?xml version="1.0" encoding="utf-8"?>
<!-- Generator: Adobe Illustrator 24.1.0, SVG Export Plug-In . SVG Version: 6.00 Build 0)  -->
<svg version="1.1" id="Warstwa_1" xmlns="http://www.w3.org/2000/svg" xmlns:xlink="http://www.w3.org/1999/xlink" x="0px" y="0px"
	 viewBox="0 0 194.47 194.47" enable-background="new 0 0 194.47 194.47" xml:space="preserve">
<g>
	<circle opacity="0.37" fill="#9AC455" cx="96.79" cy="153.13" r="11.91"/>
	<g>
		<path fill="#9AC456" d="M96.08,153.65c-34.1,0-61.85-27.74-61.85-61.85s27.74-61.85,61.85-61.85s61.85,27.74,61.85,61.85
			S130.18,153.65,96.08,153.65z M96.08,31.96c-33,0-59.85,26.85-59.85,59.85s26.85,59.85,59.85,59.85c33,0,59.85-26.85,59.85-59.85
			S129.08,31.96,96.08,31.96z"/>
	</g>
	<circle fill="#9AC456" cx="96.79" cy="153.13" r="6.28"/>
	<g>
		<path fill="#9AC456" d="M112.45,122.41c-0.29,0-0.58-0.1-0.82-0.32l-8.83-8.02v3.66c0,0.67-0.54,1.21-1.21,1.21
			s-1.21-0.54-1.21-1.21v-3.67l-8.83,8.03c-0.5,0.45-1.26,0.42-1.71-0.08c-0.45-0.5-0.41-1.26,0.08-1.71l10.46-9.51v-5.06H90.14
			c-0.67,0-1.21-0.54-1.21-1.21s0.54-1.21,1.21-1.21h34.25V67.41H78.78v3.01c0,0.67-0.54,1.21-1.21,1.21s-1.21-0.54-1.21-1.21v-4.23
			c0-0.67,0.54-1.21,1.21-1.21h22.81v-3.12c0-0.67,0.54-1.21,1.21-1.21s1.21,0.54,1.21,1.21v3.12h22.81c0.67,0,1.21,0.54,1.21,1.21
			v38.32c0,0.67-0.54,1.21-1.21,1.21H102.8v5.06l10.46,9.51c0.5,0.45,0.53,1.22,0.08,1.71C113.1,122.27,112.77,122.41,112.45,122.41
			z M83.21,122.4c-0.93,0-1.89-0.23-2.7-0.7c-0.25-0.14-0.47-0.3-0.67-0.47c-0.74,0.73-1.82,1.17-3.1,1.17
			c-2.3,0-4.69-1.46-4.69-3.9l0.2-15.83c-0.89,2.33-2.22,3-3.17,3.15c-1.15,0.19-2.36-0.31-3.15-1.29
			c-0.78-0.96-1.01-2.15-0.62-3.18l3.26-10.7c1.21-4.64,5.33-3.68,7.54-3.16c0.58,0.14,1.14,0.27,1.5,0.28
			c0.07,0,0.15,0.01,0.22,0.03c0.63,0.15,1.23,0.21,2.05,0.21c0.03,0,0.05,0,0.08,0c3.03,0,4.06-0.83,6.09-2.48
			c1.24-1,2.77-2.25,5.18-3.6c2.34-1.31,4.59-0.32,5.52,1.29c0.95,1.64,0.64,4.06-1.77,5.54l-7.91,6.16l0.34,23.54
			c0.02,1.45-0.62,2.62-1.79,3.32C84.91,122.2,84.07,122.4,83.21,122.4z M80.92,118.26c0.02,0.08,0.02,0.16,0.02,0.24
			c0,0.55,0.42,0.9,0.76,1.1c0.81,0.46,1.98,0.51,2.66,0.11c0.42-0.24,0.6-0.62,0.6-1.19l-0.35-24.14
			c-0.01-0.38,0.17-0.74,0.47-0.97l8.45-6.58c0.04-0.03,0.08-0.06,0.12-0.08c1.26-0.76,1.34-1.68,0.98-2.29
			c-0.36-0.62-1.19-0.98-2.23-0.39c-2.22,1.25-3.61,2.37-4.84,3.37c-2.17,1.75-3.73,3.03-7.63,3.03c-0.03,0-0.06,0-0.08,0
			c-0.96,0-1.72-0.08-2.49-0.25c-0.56-0.04-1.17-0.19-1.82-0.34c-2.8-0.66-4.08-0.72-4.65,1.46l-3.3,10.82
			c-0.1,0.28-0.01,0.6,0.2,0.86c0.19,0.23,0.54,0.48,0.89,0.43c0.45-0.07,0.93-0.67,1.28-1.59l2.44-7.39
			c0.19-0.57,0.76-0.91,1.35-0.82c0.59,0.1,1.02,0.61,1.01,1.21l-0.3,23.67c0,0.36,0.2,0.69,0.59,0.97
			c0.44,0.31,1.06,0.49,1.67,0.49c0.66,0,1.76-0.19,1.76-1.48v-12.96c0-0.67,0.54-1.21,1.21-1.21s1.21,0.54,1.21,1.21V118.26z
			 M90.11,100.59c-0.35,0-0.71-0.15-0.95-0.45c-0.42-0.52-0.34-1.29,0.18-1.71l9.51-7.66c0.32-0.25,0.74-0.33,1.12-0.21l5.47,1.7
			l7.93-13.3l-3.4,0.81c-0.66,0.15-1.31-0.25-1.46-0.9c-0.15-0.65,0.25-1.31,0.9-1.46l6.19-1.47c0.18-0.04,0.35-0.04,0.52-0.01
			c0.02,0,0.03-0.01,0.05-0.01c0.66-0.1,1.28,0.36,1.38,1.02l0.96,6.48c0.1,0.66-0.36,1.28-1.02,1.38c-0.66,0.1-1.28-0.36-1.38-1.02
			l-0.55-3.74l-8.52,14.29c-0.29,0.48-0.87,0.7-1.4,0.54l-5.76-1.8l-9.01,7.25C90.64,100.5,90.37,100.59,90.11,100.59z M79.94,86.64
			c-3.8,0-6.9-3.09-6.9-6.9s3.09-6.9,6.9-6.9s6.9,3.09,6.9,6.9S83.74,86.64,79.94,86.64z M79.94,75.27c-2.46,0-4.47,2.01-4.47,4.47
			s2.01,4.47,4.47,4.47s4.47-2.01,4.47-4.47S82.4,75.27,79.94,75.27z"/>
	</g>
</g>
</svg>
