<?xml version="1.0" encoding="utf-8"?>
<!-- Generator: Adobe Illustrator 24.1.0, SVG Export Plug-In . SVG Version: 6.00 Build 0)  -->
<svg version="1.1" id="Warstwa_1" xmlns="http://www.w3.org/2000/svg" xmlns:xlink="http://www.w3.org/1999/xlink" x="0px" y="0px"
	 viewBox="0 0 194.47 194.47" enable-background="new 0 0 194.47 194.47" xml:space="preserve">
<g>
	<g>
		<path fill="#7DB3E2" d="M95.89,153.93c-34.1,0-61.85-27.74-61.85-61.85s27.74-61.85,61.85-61.85s61.85,27.74,61.85,61.85
			S129.99,153.93,95.89,153.93z M95.89,32.23c-33,0-59.85,26.85-59.85,59.85s26.85,59.85,59.85,59.85c33,0,59.85-26.85,59.85-59.85
			S128.89,32.23,95.89,32.23z"/>
	</g>
	<circle fill="#7DB3E2" cx="96.6" cy="153.41" r="6.28"/>
	<circle opacity="0.37" fill="#7DB3E2" cx="96.6" cy="153.41" r="11.91"/>
	<g>
		<g>
			<path fill="#7DB3E2" d="M125.29,91.85h-2.81v-0.23c0-1.94-1.58-3.51-3.51-3.51s-3.51,1.58-3.51,3.51v0.23h-1.29V86.7h7.56
				c2.23,0,4.04-1.81,4.04-4.04V66.37c0-2.23-1.81-4.04-4.04-4.04H99.34c-2.23,0-4.04,1.81-4.04,4.04v16.28
				c0,2.23,1.81,4.04,4.04,4.04h7.09v5.15H94.02c0.07-0.27,0.11-0.55,0.11-0.84v-5.49c0-0.65-0.52-1.17-1.17-1.17H86.4
				c-0.65,0-1.17,0.52-1.17,1.17v5.49c0,0.29,0.04,0.57,0.11,0.84h-3.76l1.71-6.98c0.06-0.25,0.04-0.51-0.06-0.73
				c2.51-3.72,2.8-7.86,2.81-8.03c0.03-0.42-0.18-0.83-0.53-1.06c-0.36-0.23-0.81-0.25-1.18-0.05c-0.13,0.07-2.51,1.35-4.74,3.64
				c-0.41-4.14-2.23-7.26-2.32-7.41c-0.21-0.36-0.59-0.57-1.01-0.57h0c-0.41,0-0.8,0.22-1.01,0.58c-0.09,0.15-1.88,3.23-2.3,7.34
				c-2.24-2.27-4.63-3.51-4.76-3.58c-0.37-0.19-0.82-0.17-1.18,0.06c-0.35,0.23-0.55,0.63-0.53,1.05c0.01,0.18,0.3,4.32,2.81,8.03
				c-0.1,0.23-0.12,0.49-0.06,0.73l1.71,6.98h-3.29c-0.65,0-1.17,0.52-1.17,1.17c0,0.65,0.52,1.17,1.17,1.17h0.47v26.94
				c0,0.65,0.52,1.17,1.17,1.17s1.17-0.52,1.17-1.17v-20.38h9.37c0.65,0,1.17-0.52,1.17-1.17c0-0.65-0.52-1.17-1.17-1.17h-9.37
				v-4.22h29.52v4.22H89.68c-0.65,0-1.17,0.52-1.17,1.17c0,0.65,0.52,1.17,1.17,1.17h10.31v20.38c0,0.65,0.52,1.17,1.17,1.17h22.49
				c0.65,0,1.17-0.52,1.17-1.17V94.19h0.47c0.65,0,1.17-0.52,1.17-1.17C126.46,92.38,125.94,91.85,125.29,91.85z M76.26,74.65
				c0.53,1.43,1.06,3.42,1.06,5.61c0,1.02-0.12,2.08-0.35,3.16h-1.43c-0.23-1.08-0.35-2.14-0.35-3.16
				C75.2,78.08,75.74,76.08,76.26,74.65z M71.25,82.84c-1.01-1.48-1.6-3.08-1.95-4.36c1.14,0.86,2.53,2.1,3.58,3.65
				c0.03,0.05,0.07,0.09,0.11,0.13c0.05,0.38,0.11,0.76,0.18,1.15h-1.5C71.52,83.23,71.38,83.04,71.25,82.84z M79.17,91.85h-5.81
				l-1.49-6.09h8.8L79.17,91.85z M80.86,83.42h-1.5c0.07-0.35,0.12-0.7,0.17-1.05c0.05-0.05,0.1-0.11,0.14-0.17
				c1.05-1.54,2.41-2.78,3.55-3.66c-0.35,1.27-0.94,2.84-1.94,4.31C81.15,83.04,81.01,83.23,80.86,83.42z M91.79,91.01
				c0,0.46-0.38,0.84-0.84,0.84h-2.54c-0.46,0-0.84-0.38-0.84-0.84V86.7h4.22V91.01z M117.79,91.62c0-0.65,0.53-1.17,1.17-1.17
				c0.65,0,1.17,0.53,1.17,1.17v0.23h-2.34V91.62z M97.64,66.37c0-0.94,0.76-1.7,1.7-1.7h9.2h3.31h9.86c0.94,0,1.7,0.76,1.7,1.7
				v12.36h-11.68c0,0-3.21-0.08-3.26,0H97.64V66.37z M99.34,84.35c-0.94,0-1.7-0.76-1.7-1.7v-1.58h25.77v1.58
				c0,0.94-0.76,1.7-1.7,1.7H99.34z M111.82,86.7v5.15h-3.05V86.7H111.82z M122.48,119.97h-20.15v-7.03h20.15V119.97z
				 M122.48,110.59h-20.15v-7.03h20.15V110.59z M122.48,101.22h-20.15v-7.03h20.15V101.22z"/>
		</g>
	</g>
</g>
</svg>
