<?xml version="1.0" encoding="utf-8"?>
<!-- Generator: Adobe Illustrator 24.1.0, SVG Export Plug-In . SVG Version: 6.00 Build 0)  -->
<svg version="1.1" id="Warstwa_1" xmlns="http://www.w3.org/2000/svg" xmlns:xlink="http://www.w3.org/1999/xlink" x="0px" y="0px"
	 viewBox="0 0 194.47 194.47" enable-background="new 0 0 194.47 194.47" xml:space="preserve">
<g>
	<circle opacity="0.37" fill="#2772B9" cx="96.87" cy="153.57" r="11.91"/>
	<g>
		<path fill="#2772B9" d="M96.16,154.09c-34.1,0-61.85-27.74-61.85-61.85S62.05,30.4,96.16,30.4S158,58.14,158,92.24
			S130.26,154.09,96.16,154.09z M96.16,32.4c-33,0-59.85,26.85-59.85,59.85s26.85,59.85,59.85,59.85c33,0,59.85-26.85,59.85-59.85
			S129.16,32.4,96.16,32.4z"/>
	</g>
	<circle fill="#2772B9" cx="96.87" cy="153.57" r="6.28"/>
	<path fill="#2772B9" d="M97.48,62.43c-16.4,0-29.74,13.34-29.74,29.74c0,16.4,13.34,29.74,29.74,29.74s29.74-13.34,29.74-29.74
		C127.22,75.77,113.87,62.43,97.48,62.43z M117.64,110.45c-1.92-1.56-4.27-2.85-6.91-3.85c1.75-4.1,2.75-8.57,2.89-13.18h11.05
		C124.37,99.96,121.77,105.9,117.64,110.45z M70.28,93.41h11.47c0.15,4.56,1.12,8.97,2.84,13.03c-2.8,1.02-5.27,2.36-7.29,3.99
		C73.18,105.88,70.58,99.95,70.28,93.41z M77.3,73.91c2.03,1.63,4.51,2.98,7.33,4c-1.72,4.05-2.71,8.47-2.87,13.02H70.28
		C70.58,84.39,73.18,78.46,77.3,73.91z M96.23,66.49v11.07c-2.84-0.09-5.58-0.48-8.12-1.15C90.12,72.59,92.88,69.22,96.23,66.49z
		 M96.23,80.04v10.89H84.28c0.16-4.3,1.12-8.44,2.78-12.25C89.92,79.48,93.02,79.94,96.23,80.04z M96.23,93.41v10.89
		c-3.23,0.1-6.35,0.57-9.22,1.37c-1.64-3.82-2.59-7.96-2.74-12.26H96.23z M96.23,106.79v11.18c-3.38-2.76-6.16-6.16-8.18-10.01
		C90.61,107.28,93.37,106.88,96.23,106.79z M98.72,106.79c3,0.1,5.89,0.53,8.54,1.27c-2.09,3.97-5,7.45-8.54,10.24V106.79z
		 M98.72,104.31V93.41h12.38c-0.15,4.34-1.12,8.53-2.79,12.37C105.33,104.92,102.09,104.41,98.72,104.31z M98.72,90.93V80.04
		c3.35-0.1,6.59-0.61,9.55-1.47c1.68,3.84,2.66,8.02,2.82,12.36H98.72z M98.72,77.55V66.15c3.51,2.77,6.39,6.22,8.48,10.15
		C104.56,77.03,101.7,77.46,98.72,77.55z M101.61,65.26c5.46,0.84,10.38,3.29,14.27,6.86c-1.74,1.37-3.86,2.51-6.25,3.4
		C107.62,71.63,104.91,68.15,101.61,65.26z M85.67,75.66c-2.54-0.9-4.78-2.09-6.61-3.52c4.02-3.69,9.13-6.19,14.79-6.95
		C90.47,68.12,87.7,71.68,85.67,75.66z M85.62,108.7c2,3.96,4.74,7.5,8.08,10.43c-5.61-0.78-10.66-3.27-14.64-6.93
		C80.88,110.78,83.1,109.6,85.62,108.7z M109.68,108.84c2.37,0.88,4.47,2.02,6.2,3.38c-3.85,3.54-8.72,5.98-14.11,6.84
		C105.02,116.18,107.7,112.71,109.68,108.84z M113.62,90.93c-0.16-4.61-1.17-9.07-2.93-13.17c2.66-1,5.02-2.3,6.95-3.87
		c4.13,4.55,6.74,10.49,7.03,17.04H113.62z"/>
</g>
</svg>
