<?xml version="1.0" encoding="utf-8"?>
<!-- Generator: Adobe Illustrator 24.1.0, SVG Export Plug-In . SVG Version: 6.00 Build 0)  -->
<svg version="1.1" id="Warstwa_1" xmlns="http://www.w3.org/2000/svg" xmlns:xlink="http://www.w3.org/1999/xlink" x="0px" y="0px"
	 viewBox="0 0 194.47 194.47" enable-background="new 0 0 194.47 194.47" xml:space="preserve">
<g>
	<circle opacity="0.37" fill="#2772B9" cx="96.79" cy="153.41" r="11.91"/>
	<g>
		<path fill="#2772B9" d="M96.08,153.93c-34.1,0-61.85-27.74-61.85-61.85s27.74-61.85,61.85-61.85s61.85,27.74,61.85,61.85
			S130.18,153.93,96.08,153.93z M96.08,32.23c-33,0-59.85,26.85-59.85,59.85s26.85,59.85,59.85,59.85c33,0,59.85-26.85,59.85-59.85
			S129.08,32.23,96.08,32.23z"/>
	</g>
	<circle fill="#2772B9" cx="96.79" cy="153.41" r="6.28"/>
	<g>
		<path fill="#2772B9" d="M130,113.84c-0.01-0.02-0.04-0.03-0.05-0.05c-0.02-0.02-0.02-0.04-0.04-0.06l-8.13-9.17
			c0.75-0.72,1.23-1.72,1.23-2.84V71.24c0-2.16-1.76-3.92-3.92-3.92H72.66c-2.16,0-3.92,1.76-3.92,3.92v30.48
			c0,1.13,0.48,2.14,1.25,2.85l-8.11,9.16c-0.42,0.48-0.52,1.13-0.26,1.72c0.38,0.85,1.41,1.35,2.19,1.35h64.18
			c0.84,0,1.75-0.54,2.12-1.25C130.39,114.99,130.35,114.35,130,113.84z M71.22,71.24c0-0.79,0.64-1.43,1.43-1.43h46.43
			c0.79,0,1.43,0.64,1.43,1.43v30.48c0,0.79-0.64,1.43-1.43,1.43H72.66c-0.79,0-1.43-0.64-1.43-1.43V71.24z M72.38,105.62
			c0.09,0.01,0.18,0.03,0.27,0.03h46.43c0.1,0,0.2-0.02,0.3-0.03l7.71,8.7l-62.38-0.04L72.38,105.62z"/>
		<path fill="#2772B9" d="M73.99,101.17h43.77c0.69,0,1.24-0.56,1.24-1.24V72.87c0-0.69-0.56-1.24-1.24-1.24H73.99
			c-0.69,0-1.24,0.56-1.24,1.24v27.06C72.75,100.62,73.3,101.17,73.99,101.17z M75.24,74.12h41.28v24.57H75.24V74.12z"/>
	</g>
</g>
</svg>
