<?xml version="1.0" encoding="utf-8"?>
<!-- Generator: Adobe Illustrator 24.1.0, SVG Export Plug-In . SVG Version: 6.00 Build 0)  -->
<svg version="1.1" id="Warstwa_1" xmlns="http://www.w3.org/2000/svg" xmlns:xlink="http://www.w3.org/1999/xlink" x="0px" y="0px"
	 viewBox="0 0 194.47 194.47" enable-background="new 0 0 194.47 194.47" xml:space="preserve">
<g>
	<g>
		<path fill="#7DB2E1" d="M95.78,153.12c-34.1,0-61.85-27.74-61.85-61.85s27.74-61.85,61.85-61.85s61.85,27.74,61.85,61.85
			S129.88,153.12,95.78,153.12z M95.78,31.42c-33,0-59.85,26.85-59.85,59.85s26.85,59.85,59.85,59.85c33,0,59.85-26.85,59.85-59.85
			S128.78,31.42,95.78,31.42z"/>
	</g>
	<circle fill="#7DB2E1" cx="96.49" cy="152.6" r="6.28"/>
	<circle opacity="0.37" fill="#7DB2E1" cx="96.49" cy="152.6" r="11.91"/>
	<g>
		<path fill="#7DB2E1" d="M79.45,80.6c-0.6-0.46-1.46-0.35-1.92,0.25l-3.56,4.61l-1.2-1.56c-0.46-0.6-1.32-0.71-1.92-0.25
			c-0.6,0.46-0.71,1.32-0.25,1.92l2.28,2.97c0.26,0.34,0.66,0.53,1.08,0.54c0,0,0,0,0,0c0.42,0,0.82-0.2,1.08-0.53l4.65-6.02
			C80.16,81.92,80.05,81.06,79.45,80.6z"/>
		<path fill="#7DB2E1" d="M79.45,90.1c-0.6-0.46-1.46-0.35-1.92,0.25l-3.56,4.61l-1.2-1.56c-0.46-0.6-1.32-0.71-1.92-0.25
			c-0.6,0.46-0.71,1.32-0.25,1.92l2.28,2.97c0.26,0.34,0.66,0.53,1.08,0.54c0,0,0,0,0,0c0.42,0,0.82-0.2,1.08-0.53l4.65-6.02
			C80.16,91.42,80.05,90.56,79.45,90.1z"/>
		<path fill="#7DB2E1" d="M79.38,99.53c-0.6-0.46-1.46-0.35-1.92,0.25l-3.56,4.61l-1.2-1.56c-0.46-0.6-1.32-0.71-1.92-0.25
			c-0.6,0.46-0.71,1.32-0.25,1.92l2.28,2.97c0.26,0.34,0.66,0.53,1.08,0.54c0,0,0,0,0,0c0.42,0,0.82-0.2,1.08-0.53l4.65-6.02
			C80.09,100.85,79.98,100,79.38,99.53z"/>
		<path fill="#7DB2E1" d="M85.71,73.8c0.76,0,1.37-0.61,1.37-1.37s-0.61-1.37-1.37-1.37H70.78c-0.76,0-1.37,0.61-1.37,1.37
			s0.61,1.37,1.37,1.37H85.71z"/>
		<path fill="#7DB2E1" d="M130.83,115.71l-9.54-9.54c1.7-2.53,2.7-5.58,2.7-8.85c0-8.76-7.13-15.88-15.88-15.88
			c-0.04,0-0.07,0-0.1,0c-0.01-0.5-0.02-0.91-0.02-1.22c0-0.17-0.01-0.3-0.01-0.4c0-0.1,0.01-0.23,0.01-0.4
			c0.01-0.55,0.03-1.41,0.04-2.57c0-0.02,0-0.04,0-0.06c0-0.02,0-0.03,0-0.05c0-0.06-0.01-0.12-0.02-0.18c0,0,0,0,0-0.01
			c-0.01-0.06-0.03-0.11-0.05-0.17c0-0.01-0.01-0.02-0.01-0.03c-0.02-0.06-0.04-0.11-0.07-0.17c0,0,0,0,0,0
			c-0.03-0.05-0.06-0.1-0.09-0.15c-0.01-0.01-0.02-0.02-0.02-0.03c-0.04-0.05-0.07-0.09-0.12-0.14c0,0,0,0,0-0.01L93.14,61.39
			c0,0,0,0,0,0c-0.04-0.04-0.09-0.08-0.14-0.12c-0.01-0.01-0.02-0.02-0.03-0.02c-0.05-0.03-0.1-0.07-0.15-0.1c0,0-0.01,0-0.01-0.01
			c-0.05-0.03-0.1-0.05-0.15-0.07c-0.01,0-0.02-0.01-0.03-0.01c-0.06-0.02-0.11-0.04-0.17-0.05c0,0-0.01,0-0.01,0
			c-0.05-0.01-0.11-0.02-0.16-0.02c-0.02,0-0.03,0-0.05,0c-0.01,0-0.03,0-0.04,0H65.97c-1.98,0-3.59,1.61-3.59,3.59v53.95
			c0,1.98,1.61,3.59,3.59,3.59h40.69c0.76,0,1.37-0.61,1.37-1.37c0-0.02,0-0.04,0-0.06c0-0.03,0-0.06,0-0.09
			c-0.02-1.61-0.04-2.56-0.06-3.2c-0.03-1.3-0.03-1.3-0.01-3.01c0-0.32,0.01-0.71,0.01-1.18c0.04,0,0.09,0,0.13,0
			c2.47,0,4.81-0.57,6.9-1.58l9.95,9.95c0.26,0.26,0.6,0.4,0.97,0.4c0.36,0,0.71-0.14,0.97-0.4l3.94-3.94
			C131.36,117.11,131.36,116.24,130.83,115.71z M93.54,65.65l9.81,9.81H94.4c-0.47,0-0.85-0.38-0.85-0.85V65.65z M105.23,117.44
			c0.01,0.45,0.02,1.05,0.04,1.93h-39.3c-0.46,0-0.85-0.39-0.85-0.85V64.57c0-0.46,0.39-0.85,0.85-0.85h24.84v10.89
			c0,1.98,1.61,3.59,3.59,3.59h10.87c-0.01,0.63-0.02,1.02-0.02,1.27c-0.02,0.11-0.03,0.23-0.03,0.36s0.01,0.25,0.03,0.36
			c0.01,0.28,0.02,0.74,0.03,1.52c-2.07,0.37-3.99,1.15-5.7,2.24c-0.05-0.01-0.1-0.01-0.16-0.01H83.78c-0.76,0-1.37,0.61-1.37,1.37
			s0.61,1.37,1.37,1.37h12.56c-1.72,1.9-2.99,4.21-3.63,6.77h-8.93c-0.76,0-1.37,0.61-1.37,1.37s0.61,1.37,1.37,1.37h8.49
			c-0.03,0.38-0.05,0.77-0.05,1.16c0,1.95,0.35,3.81,1,5.54h-9.51c-0.76,0-1.37,0.61-1.37,1.37s0.61,1.37,1.37,1.37h10.84
			c2.32,3.78,6.17,6.52,10.69,7.35c-0.01,0.57-0.01,1.03-0.02,1.41C105.21,116.11,105.21,116.11,105.23,117.44z M94.96,97.32
			c0-7.25,5.9-13.15,13.15-13.15c7.25,0,13.15,5.9,13.15,13.15c0,7.25-5.9,13.15-13.15,13.15
			C100.86,110.47,94.96,104.57,94.96,97.32z M125.92,118.68l-8.16-8.16l2.03-1.97l8.12,8.12L125.92,118.68z"/>
		<path fill="#7DB2E1" d="M118.98,97.32c0-6-4.88-10.88-10.88-10.88c-0.76,0-1.37,0.61-1.37,1.37s0.61,1.37,1.37,1.37
			c4.49,0,8.14,3.65,8.14,8.14c0,0.76,0.61,1.37,1.37,1.37S118.98,98.08,118.98,97.32z"/>
	</g>
</g>
</svg>
