<?xml version="1.0" encoding="UTF-8" standalone="no"?>
<!DOCTYPE svg PUBLIC "-//W3C//DTD SVG 1.1//EN" "http://www.w3.org/Graphics/SVG/1.1/DTD/svg11.dtd">
<svg width="100%" height="100%" viewBox="0 0 1630 3009" version="1.1" xmlns="http://www.w3.org/2000/svg" xmlns:xlink="http://www.w3.org/1999/xlink" xml:space="preserve" xmlns:serif="http://www.serif.com/" style="fill-rule:evenodd;clip-rule:evenodd;stroke-linejoin:round;stroke-miterlimit:2;">
    <g transform="matrix(4.16667,0,0,4.16667,0,0)">
        <g transform="matrix(1,0,0,1,-1527.75,-622.455)">
            <path id="Shape-2-copy-2-kopia-2" serif:id="Shape 2 copy 2 kopia 2" d="M1954.04,1148.07L1946.44,1132.05L1863.7,958.706L1856.11,942.714L1848.42,926.704L1769.22,760.763L1760.46,742.388L1751.72,724.026L1751.72,724.004L1527.75,724.004L1624.44,926.704L1632.13,942.714L1639.55,958.259L1639.38,958.706L1639.73,958.706L1648.3,976.634L1657.14,994.996L1722.45,1132.05L1730.14,1148.07L1737.75,1164.05L1824.02,1344.82L2047.99,1344.82L1961.73,1164.05L1954.04,1148.07Z" style="fill:rgb(0,60,137);fill-rule:nonzero;"/>
            <path id="Shape-2-copy-2-kopia-3" serif:id="Shape 2 copy 2 kopia 3" d="M1925.85,886.03L1918.98,871.544L1844.09,714.751L1837.21,700.285L1830.25,685.803L1758.57,535.706L1750.64,519.084L1742.72,502.476L1742.72,502.455L1540,502.455L1627.52,685.803L1634.48,700.285L1641.2,714.346L1641.04,714.751L1641.36,714.751L1649.12,730.968L1657.12,747.576L1716.24,871.544L1723.2,886.03L1730.08,900.492L1803,1053L2011,1053L1932.81,900.492L1925.85,886.03Z" style="fill:rgb(161,187,212);fill-opacity:0.2;fill-rule:nonzero;"/>
        </g>
    </g>
</svg>
