<?xml version="1.0" encoding="UTF-8" standalone="no"?>
<!DOCTYPE svg PUBLIC "-//W3C//DTD SVG 1.1//EN" "http://www.w3.org/Graphics/SVG/1.1/DTD/svg11.dtd">
<svg width="100%" height="100%" viewBox="0 0 2168 2587" version="1.1" xmlns="http://www.w3.org/2000/svg" xmlns:xlink="http://www.w3.org/1999/xlink" xml:space="preserve" xmlns:serif="http://www.serif.com/" style="fill-rule:evenodd;clip-rule:evenodd;stroke-linejoin:round;stroke-miterlimit:2;">
    <g transform="matrix(4.16667,0,0,4.16667,0,0)">
        <g id="Shape-2-copy-2-kopia-6" serif:id="Shape 2 copy 2 kopia 6" transform="matrix(1,0,0,1,-2010.75,-952.004)">
            <path d="M2437.03,1376.07L2429.44,1360.05L2346.7,1186.71L2339.11,1170.71L2331.42,1154.7L2252.22,988.763L2243.46,970.389L2234.72,952.026L2234.72,952.004L2010.75,952.004L2107.44,1154.7L2115.13,1170.71L2122.55,1186.26L2122.38,1186.71L2122.73,1186.71L2131.3,1204.63L2140.14,1223L2205.45,1360.05L2213.14,1376.07L2220.75,1392.05L2307.02,1572.82L2530.99,1572.82L2444.73,1392.05L2437.03,1376.07Z" style="fill:rgb(0,60,137);fill-rule:nonzero;"/>
        </g>
    </g>
</svg>
